<?xml version="1.0" encoding="UTF-8" standalone="no"?>
<!DOCTYPE svg PUBLIC "-//W3C//DTD SVG 1.1//EN" "http://www.w3.org/Graphics/SVG/1.1/DTD/svg11.dtd">
<svg width="100%" height="100%" viewBox="0 0 469 810" version="1.1" xmlns="http://www.w3.org/2000/svg" xmlns:xlink="http://www.w3.org/1999/xlink" xml:space="preserve" xmlns:serif="http://www.serif.com/" style="fill-rule:evenodd;clip-rule:evenodd;stroke-linejoin:round;stroke-miterlimit:2;">
    <g transform="matrix(1,0,0,1,-1916.82,0)">
        <g id="Next" transform="matrix(0.170733,0,0,1.3587,1785.35,339.604)">
            <rect x="769.988" y="-249.948" width="2742.69" height="596.017" style="fill:none;"/>
            <g transform="matrix(24.4046,0,0,3.06665,-36419.4,-1502.3)">
                <path d="M1621.16,493C1628.07,493 1633.67,498.599 1633.67,505.506C1633.67,512.413 1628.07,518.013 1621.16,518.013C1614.25,518.013 1608.65,512.413 1608.65,505.506C1608.65,498.599 1614.25,493 1621.16,493Z" style="fill:rgb(3,4,4);fill-rule:nonzero;"/>
            </g>
            <g transform="matrix(24.4046,0,0,3.06665,-36419.4,-1502.3)">
                <path d="M1600.39,513.767C1607.3,513.767 1612.9,519.367 1612.9,526.274C1612.9,533.181 1607.3,538.78 1600.39,538.78C1593.49,538.78 1587.89,533.181 1587.89,526.274C1587.89,519.367 1593.49,513.767 1600.39,513.767Z" style="fill:rgb(3,4,4);fill-rule:nonzero;"/>
            </g>
            <g transform="matrix(24.4046,0,0,3.06665,-36419.4,-1502.3)">
                <path d="M1579.61,534.554C1586.51,534.554 1592.11,540.153 1592.11,547.061C1592.11,553.968 1586.51,559.567 1579.61,559.567C1572.7,559.567 1567.1,553.968 1567.1,547.061C1567.1,540.153 1572.7,534.554 1579.61,534.554Z" style="fill:rgb(3,4,4);fill-rule:nonzero;"/>
            </g>
            <g transform="matrix(24.4046,0,0,3.06665,-36419.4,-1502.3)">
                <path d="M1558.84,555.322C1565.74,555.322 1571.34,560.921 1571.34,567.828C1571.34,574.735 1565.74,580.334 1558.84,580.334C1551.93,580.334 1546.33,574.735 1546.33,567.828C1546.33,560.921 1551.93,555.322 1558.84,555.322Z" style="fill:rgb(3,4,4);fill-rule:nonzero;"/>
            </g>
            <g transform="matrix(24.4046,0,0,3.06665,-36419.4,-1502.3)">
                <path d="M1538.05,576.108C1544.96,576.108 1550.56,581.708 1550.56,588.615C1550.56,595.522 1544.96,601.121 1538.05,601.121C1531.14,601.121 1525.54,595.522 1525.54,588.615C1525.54,581.708 1531.14,576.108 1538.05,576.108Z" style="fill:rgb(3,4,4);fill-rule:nonzero;"/>
            </g>
            <g transform="matrix(24.4046,0,0,3.06665,-36419.4,-1502.3)">
                <path d="M1600.39,472.232C1607.3,472.232 1612.9,477.832 1612.9,484.739C1612.9,491.646 1607.3,497.245 1600.39,497.245C1593.49,497.245 1587.89,491.646 1587.89,484.739C1587.89,477.832 1593.49,472.232 1600.39,472.232Z" style="fill:rgb(3,4,4);fill-rule:nonzero;"/>
            </g>
            <g transform="matrix(24.4046,0,0,3.06665,-36419.4,-1502.3)">
                <path d="M1579.61,451.445C1586.51,451.445 1592.11,457.045 1592.11,463.952C1592.11,470.859 1586.51,476.458 1579.61,476.458C1572.7,476.458 1567.1,470.859 1567.1,463.952C1567.1,457.045 1572.7,451.445 1579.61,451.445Z" style="fill:rgb(3,4,4);fill-rule:nonzero;"/>
            </g>
            <g transform="matrix(24.4046,0,0,3.06665,-36419.4,-1502.3)">
                <path d="M1558.84,430.678C1565.74,430.678 1571.34,436.277 1571.34,443.184C1571.34,450.091 1565.74,455.691 1558.84,455.691C1551.93,455.691 1546.33,450.091 1546.33,443.184C1546.33,436.277 1551.93,430.678 1558.84,430.678Z" style="fill:rgb(3,4,4);fill-rule:nonzero;"/>
            </g>
            <g transform="matrix(24.4046,0,0,3.06665,-36419.4,-1502.3)">
                <path d="M1538.05,409.891C1544.96,409.891 1550.56,415.49 1550.56,422.397C1550.56,429.305 1544.96,434.904 1538.05,434.904C1531.14,434.904 1525.54,429.305 1525.54,422.397C1525.54,415.49 1531.14,409.891 1538.05,409.891Z" style="fill:rgb(3,4,4);fill-rule:nonzero;"/>
            </g>
        </g>
    </g>
</svg>
