<?xml version="1.0" encoding="UTF-8" standalone="no"?>
<!DOCTYPE svg PUBLIC "-//W3C//DTD SVG 1.1//EN" "http://www.w3.org/Graphics/SVG/1.1/DTD/svg11.dtd">
<svg width="100%" height="100%" viewBox="0 0 325 576" version="1.1" xmlns="http://www.w3.org/2000/svg" xmlns:xlink="http://www.w3.org/1999/xlink" xml:space="preserve" xmlns:serif="http://www.serif.com/" style="fill-rule:evenodd;clip-rule:evenodd;stroke-linejoin:round;stroke-miterlimit:2;">
    <g transform="matrix(1,0,0,1,-1411.58,-4738.95)">
        <g id="Pause.svg" transform="matrix(0.829016,0,0,0.790076,434.029,1901.54)">
            <rect x="1179.18" y="3591.31" width="391.122" height="728.486" style="fill:none;"/>
            <g transform="matrix(5.02604,0,0,5.27375,-2919.16,-219.466)">
                <path d="M830.77,725.833C838.336,725.833 844.47,731.966 844.47,739.533C844.47,747.099 838.336,753.233 830.77,753.233C823.204,753.233 817.07,747.099 817.07,739.533C817.07,731.966 823.204,725.833 830.77,725.833Z" style="fill:rgb(3,4,4);fill-rule:nonzero;"/>
            </g>
            <g transform="matrix(5.02604,0,0,5.27375,-2813.01,-219.466)">
                <path d="M857.181,725.833C864.747,725.833 870.881,731.966 870.881,739.533C870.881,747.099 864.747,753.233 857.181,753.233C849.615,753.233 843.481,747.099 843.481,739.533C843.481,731.966 849.615,725.833 857.181,725.833Z" style="fill:rgb(3,4,4);fill-rule:nonzero;"/>
            </g>
            <g transform="matrix(5.02604,0,0,5.27375,-2919.16,-219.466)">
                <path d="M830.77,752.375C838.336,752.375 844.47,758.508 844.47,766.075C844.47,773.641 838.336,779.775 830.77,779.775C823.204,779.775 817.07,773.641 817.07,766.075C817.07,758.508 823.204,752.375 830.77,752.375Z" style="fill:rgb(3,4,4);fill-rule:nonzero;"/>
            </g>
            <g transform="matrix(5.02604,0,0,5.27375,-2813.01,-219.466)">
                <path d="M857.181,752.375C864.747,752.375 870.881,758.508 870.881,766.075C870.881,773.641 864.747,779.775 857.181,779.775C849.615,779.775 843.481,773.641 843.481,766.075C843.481,758.508 849.615,752.375 857.181,752.375Z" style="fill:rgb(3,4,4);fill-rule:nonzero;"/>
            </g>
            <g transform="matrix(5.02604,0,0,5.27375,-2919.16,-219.466)">
                <path d="M830.77,778.897C838.336,778.897 844.47,785.031 844.47,792.598C844.47,800.165 838.336,806.298 830.77,806.298C823.204,806.298 817.07,800.165 817.07,792.598C817.07,785.031 823.204,778.897 830.77,778.897Z" style="fill:rgb(3,4,4);fill-rule:nonzero;"/>
            </g>
            <g transform="matrix(5.02604,0,0,5.27375,-2813.01,-219.466)">
                <path d="M857.181,778.897C864.747,778.897 870.881,785.031 870.881,792.598C870.881,800.165 864.747,806.298 857.181,806.298C849.615,806.298 843.481,800.165 843.481,792.598C843.481,785.031 849.615,778.897 857.181,778.897Z" style="fill:rgb(3,4,4);fill-rule:nonzero;"/>
            </g>
            <g transform="matrix(5.02604,0,0,5.27375,-2919.16,-219.466)">
                <path d="M830.77,805.458C838.336,805.458 844.47,811.592 844.47,819.158C844.47,826.725 838.336,832.858 830.77,832.858C823.204,832.858 817.07,826.725 817.07,819.158C817.07,811.592 823.204,805.458 830.77,805.458Z" style="fill:rgb(3,4,4);fill-rule:nonzero;"/>
            </g>
            <g transform="matrix(5.02604,0,0,5.27375,-2813.01,-219.466)">
                <path d="M857.181,805.458C864.747,805.458 870.881,811.592 870.881,819.158C870.881,826.725 864.747,832.858 857.181,832.858C849.615,832.858 843.481,826.725 843.481,819.158C843.481,811.592 849.615,805.458 857.181,805.458Z" style="fill:rgb(3,4,4);fill-rule:nonzero;"/>
            </g>
            <g transform="matrix(5.02604,0,0,5.27375,-2919.16,-219.466)">
                <path d="M830.77,832C838.336,832 844.47,838.134 844.47,845.7C844.47,853.267 838.336,859.4 830.77,859.4C823.204,859.4 817.07,853.267 817.07,845.7C817.07,838.134 823.204,832 830.77,832Z" style="fill:rgb(3,4,4);fill-rule:nonzero;"/>
            </g>
            <g transform="matrix(5.02604,0,0,5.27375,-2813.01,-219.466)">
                <path d="M857.181,832C864.747,832 870.881,838.134 870.881,845.7C870.881,853.267 864.747,859.4 857.181,859.4C849.615,859.4 843.481,853.267 843.481,845.7C843.481,838.134 849.615,832 857.181,832Z" style="fill:rgb(3,4,4);fill-rule:nonzero;"/>
            </g>
        </g>
    </g>
</svg>
