<?xml version="1.0" encoding="UTF-8" standalone="no"?>
<!DOCTYPE svg PUBLIC "-//W3C//DTD SVG 1.1//EN" "http://www.w3.org/Graphics/SVG/1.1/DTD/svg11.dtd">
<svg width="100%" height="100%" viewBox="0 0 2760 1201" version="1.1" xmlns="http://www.w3.org/2000/svg" xmlns:xlink="http://www.w3.org/1999/xlink" xml:space="preserve" xmlns:serif="http://www.serif.com/" style="fill-rule:evenodd;clip-rule:evenodd;stroke-linejoin:round;stroke-miterlimit:2;">
    <g id="Artboard1" transform="matrix(0.962578,0,0,0.73915,-594.738,-333.593)">
        <rect x="617.859" y="451.319" width="2866.95" height="1624.2" style="fill:none;"/>
        <g transform="matrix(3.33674,0,0,10.4994,-6321.37,-10493.6)">
            <path d="M2103.46,1184.91L2913.42,1184.91L2913.42,1065.96L2103.46,1065.96L2103.46,1184.91ZM2919.08,1190.57L2097.8,1190.57L2097.8,1060.3L2919.08,1060.3L2919.08,1190.57Z" style="fill:white;fill-rule:nonzero;"/>
        </g>
        <g transform="matrix(4.32865,0,0,5.6371,-8806.22,-5349.97)">
            <path d="M2508.44,1034.81L2485.55,1063.13L2531.33,1063.13L2508.44,1034.81Z" style="fill:white;fill-rule:nonzero;"/>
        </g>
        <g transform="matrix(4.32865,0,0,5.6371,-4191.29,-6081.11)">
            <path d="M1276.98,1306.87L1265.98,1288.22L1234.71,1288.22L1244.2,1272.12L1256.96,1272.36L1244.43,1251.74L1212.01,1306.87L1187.69,1306.87L1234.94,1228.35C1237.49,1224.18 1240.62,1221.51 1245.25,1221.51C1249.76,1221.51 1252.9,1224.18 1255.44,1228.35L1302.69,1306.87L1276.98,1306.87Z" style="fill:white;fill-rule:nonzero;"/>
        </g>
        <g transform="matrix(8.64362,0,0,14.1599,-7101.71,-141160)">
            <g transform="matrix(50,0,0,50,1171.8,10059.9)">
            </g>
            <text x="989.151px" y="10059.9px" style="font-family:'MicrogrammaD-BoldExte', 'Microgramma D';font-weight:700;font-size:50px;fill:white;"><tspan x="989.151px 1034.7px " y="10059.9px 10059.9px ">BO</tspan>UT</text>
        </g>
        <g transform="matrix(9.12242,0,0,14.1599,-8021.32,-140629)">
            <g transform="matrix(50,0,0,50,1188.15,10059.9)">
            </g>
            <text x="989.151px" y="10059.9px" style="font-family:'MicrogrammaD-BoldExte', 'Microgramma D';font-weight:700;font-size:50px;fill:white;"><tspan x="989.151px " y="10059.9px ">G</tspan>    ME</text>
        </g>
        <g transform="matrix(4.32865,0,0,5.6371,-3742.95,-5548.59)">
            <path d="M1276.98,1306.87L1265.98,1288.22L1234.71,1288.22L1244.2,1272.12L1256.96,1272.36L1244.43,1251.74L1212.01,1306.87L1187.69,1306.87L1234.94,1228.35C1237.49,1224.18 1240.62,1221.51 1245.25,1221.51C1249.76,1221.51 1252.9,1224.18 1255.44,1228.35L1302.69,1306.87L1276.98,1306.87Z" style="fill:white;fill-rule:nonzero;"/>
        </g>
    </g>
</svg>
