<?xml version="1.0" encoding="UTF-8" standalone="no"?>
<!DOCTYPE svg PUBLIC "-//W3C//DTD SVG 1.1//EN" "http://www.w3.org/Graphics/SVG/1.1/DTD/svg11.dtd">
<svg width="100%" height="100%" viewBox="0 0 2674 1227" version="1.1" xmlns="http://www.w3.org/2000/svg" xmlns:xlink="http://www.w3.org/1999/xlink" xml:space="preserve" xmlns:serif="http://www.serif.com/" style="fill-rule:evenodd;clip-rule:evenodd;stroke-linejoin:round;stroke-miterlimit:2;">
    <g id="Artboard1" transform="matrix(0.932662,0,0,0.755175,-576.254,-340.825)">
        <rect x="617.859" y="451.319" width="2866.95" height="1624.2" style="fill:none;"/>
        <clipPath id="_clip1">
            <rect x="617.859" y="451.319" width="2866.95" height="1624.2"/>
        </clipPath>
        <g clip-path="url(#_clip1)">
            <g transform="matrix(3.43481,0,0,10.8637,-6588.69,-10898.2)">
                <path d="M2103.46,1184.91L2913.42,1184.91L2913.42,1065.96L2103.46,1065.96L2103.46,1184.91ZM2919.08,1190.57L2097.8,1190.57L2097.8,1060.3L2919.08,1060.3L2919.08,1190.57Z" style="fill:white;fill-rule:nonzero;"/>
            </g>
            <g transform="matrix(4.4675,0,0,5.51748,-9104.3,-5238.16)">
                <path d="M2508.44,1034.81L2485.55,1063.13L2531.33,1063.13L2508.44,1034.81Z" style="fill:white;fill-rule:nonzero;"/>
            </g>
            <g transform="matrix(8.99527,0,0,13.8595,-7418.63,-138121)">
                <g transform="matrix(0.500792,0,0,0.398102,337.315,9539.62)">
                    <path d="M1276.98,1306.87L1265.98,1288.22L1234.71,1288.22L1244.2,1272.12L1256.96,1272.36L1244.43,1251.74L1212.01,1306.87L1187.69,1306.87L1234.94,1228.35C1237.49,1224.18 1240.62,1221.51 1245.25,1221.51C1249.76,1221.51 1252.9,1224.18 1255.44,1228.35L1302.69,1306.87L1276.98,1306.87Z" style="fill:white;fill-rule:nonzero;"/>
                </g>
                <path d="M991.501,10059.9L1015.5,10059.9C1026.7,10059.9 1027.25,10059.8 1029.15,10059.2C1032.1,10058.2 1033.35,10055.7 1033.35,10051C1033.35,10045.6 1032,10043.7 1027.6,10042.9C1030.95,10042 1032.1,10040 1032.1,10035.3C1032.1,10029.2 1030.3,10027.1 1024.85,10026.7C1023.35,10026.6 1023.35,10026.6 1015.45,10026.6L991.501,10026.6L991.501,10059.9ZM1001.15,10039.7L1001.15,10034.4L1015.45,10034.4C1020.05,10034.5 1020.2,10034.5 1020.75,10034.6C1021.8,10034.8 1022.25,10035.6 1022.25,10037C1022.25,10038.2 1021.9,10039 1021.15,10039.3C1020.5,10039.6 1019.05,10039.7 1015.45,10039.7L1001.15,10039.7ZM1001.15,10051.9L1001.15,10046.4L1015.5,10046.4C1021.4,10046.4 1021.4,10046.4 1021.9,10046.5C1023.05,10046.8 1023.5,10047.5 1023.5,10049C1023.5,10050.4 1023.15,10051.2 1022.3,10051.5C1021.55,10051.9 1021.55,10051.9 1015.5,10051.9L1001.15,10051.9Z" style="fill:white;fill-rule:nonzero;"/>
                <path d="M1059.25,10026.1C1045.3,10026.1 1042.2,10026.4 1039.65,10028.4C1037.1,10030.3 1036.35,10033.7 1036.35,10043C1036.35,10052.8 1037.05,10056.1 1039.65,10058.1C1042.2,10060.1 1045.3,10060.4 1059.35,10060.4C1073.15,10060.4 1076.3,10060.1 1078.85,10058.1C1081.4,10056.2 1082.15,10052.8 1082.15,10043.2C1082.15,10033.7 1081.4,10030.3 1078.85,10028.4C1076.3,10026.4 1073.2,10026.1 1059.25,10026.1ZM1059.25,10034.7C1068.55,10034.7 1069.65,10034.9 1070.8,10036.2C1071.7,10037.3 1072,10039.2 1072,10044.2C1072,10048.2 1071.65,10049.7 1070.5,10050.6C1069.15,10051.6 1067.5,10051.8 1059.35,10051.8C1050.95,10051.8 1049.35,10051.6 1048,10050.6C1046.8,10049.6 1046.5,10048.3 1046.5,10044.1C1046.5,10039.9 1046.7,10038 1047.3,10036.8C1048.3,10034.9 1049.25,10034.7 1059.25,10034.7Z" style="fill:white;fill-rule:nonzero;"/>
                <path d="M1085.95,10026.6L1085.95,10041.9C1086,10047.3 1086,10047.3 1086.05,10048.4C1086.3,10053.3 1086.85,10055.4 1088.5,10057.1C1091,10059.7 1095,10060.4 1107.75,10060.4C1115.5,10060.4 1118.85,10060.2 1121.85,10059.6C1125.65,10058.8 1128.2,10056.2 1128.75,10052.4C1129.05,10050 1129.1,10049.5 1129.25,10041.9L1129.25,10026.6L1119.1,10026.6L1119.1,10041.9C1119.1,10042.6 1119.05,10044.2 1119,10045.4C1118.85,10048.5 1118.6,10049.4 1117.8,10050.3C1116.7,10051.5 1114.6,10051.8 1107.6,10051.8C1098.95,10051.8 1097,10051.2 1096.45,10048.6C1096.2,10047.2 1096.2,10047.2 1096.1,10041.9L1096.1,10026.6L1085.95,10026.6Z" style="fill:white;fill-rule:nonzero;"/>
                <path d="M1131.45,10026.6L1131.45,10035.1L1146.3,10035.1L1146.3,10059.9L1156.95,10059.9L1156.95,10035.1L1171.8,10035.1L1171.8,10026.6L1131.45,10026.6Z" style="fill:white;fill-rule:nonzero;"/>
            </g>
            <g transform="matrix(9.41503,0,0,13.8595,-8256.28,-137569)">
                <path d="M1011.7,10041L1011.7,10047.7L1025.05,10047.7L1025.05,10048.6C1025.05,10052.3 1024.75,10052.4 1012.9,10052.4L1006.95,10052.3C1004.1,10052.2 1003.2,10052.1 1002.35,10051.4C1001.25,10050.5 1000.95,10048.8 1000.95,10043.1C1000.95,10034.5 1001,10034.4 1013,10034.4C1020.6,10034.4 1022.95,10034.6 1023.95,10035.3C1024.6,10035.8 1024.7,10036.2 1024.75,10038.1L1034.9,10038.1C1034.85,10033.2 1034.45,10031.2 1033.05,10029.5C1030.85,10026.9 1026.25,10026.1 1013.85,10026.1C992.251,10026.1 990.801,10027.1 990.801,10042.7C990.801,10053.7 991.351,10056.1 994.301,10058.1C997.101,10060 1000.65,10060.4 1012.1,10060.4C1021.15,10060.4 1024.65,10060.2 1028.05,10059.5C1032.05,10058.7 1034.2,10056.4 1034.6,10052.5C1034.75,10050.9 1034.95,10045.2 1034.95,10041.9L1034.95,10041L1011.7,10041Z" style="fill:white;fill-rule:nonzero;"/>
                <g transform="matrix(0.474507,0,0,0.398102,468.984,9539.82)">
                    <path d="M1276.98,1306.87L1265.98,1288.22L1234.71,1288.22L1244.2,1272.12L1256.96,1272.36L1244.43,1251.74L1212.01,1306.87L1187.69,1306.87L1234.94,1228.35C1237.49,1224.18 1240.62,1221.51 1245.25,1221.51C1249.76,1221.51 1252.9,1224.18 1255.44,1228.35L1302.69,1306.87L1276.98,1306.87Z" style="fill:white;fill-rule:nonzero;"/>
                </g>
                <path d="M1089,10026.6L1089,10059.9L1099,10059.9L1098.75,10035L1100.55,10035L1113.1,10059.9L1121.55,10059.9L1134.1,10035L1135.8,10035L1135.55,10059.9L1145.55,10059.9L1145.55,10026.6L1127.25,10026.6L1117.3,10048.2L1107.4,10026.6L1089,10026.6Z" style="fill:white;fill-rule:nonzero;"/>
                <path d="M1150.2,10026.6L1150.2,10059.9L1187.3,10059.9L1187.3,10051.9L1160.2,10051.9L1160.2,10046.6L1185.75,10046.6L1185.75,10039.3L1160.2,10039.3L1160.2,10034.4L1187.1,10034.4L1187.1,10026.6L1150.2,10026.6Z" style="fill:white;fill-rule:nonzero;"/>
            </g>
        </g>
    </g>
</svg>
