<?xml version="1.0" encoding="UTF-8" standalone="no"?>
<!DOCTYPE svg PUBLIC "-//W3C//DTD SVG 1.1//EN" "http://www.w3.org/Graphics/SVG/1.1/DTD/svg11.dtd">
<svg width="100%" height="100%" viewBox="0 0 3749 1317" version="1.1" xmlns="http://www.w3.org/2000/svg" xmlns:xlink="http://www.w3.org/1999/xlink" xml:space="preserve" xmlns:serif="http://www.serif.com/" style="fill-rule:evenodd;clip-rule:evenodd;stroke-linejoin:round;stroke-miterlimit:2;">
    <g id="Artboard1" transform="matrix(1.80592,0,0,0.984206,42.5789,-399.387)">
        <rect x="-23.577" y="405.797" width="2075.55" height="1337.47" style="fill:none;"/>
        <g transform="matrix(0.791978,0,0,1.27399,-648.853,81.0281)">
            <path d="M822.106,686.388C822.106,759.588 875.506,818.988 945.706,818.988L1044.71,818.988C1050.71,818.988 1056.11,813.588 1056.11,807.588L1056.11,613.188C1056.11,607.188 1050.71,601.788 1044.71,601.788L935.506,601.788C929.506,601.788 924.106,607.188 924.106,613.188L924.106,652.188C924.106,658.188 929.506,663.588 935.506,663.588L994.306,663.588L994.306,757.188L945.706,757.188C913.906,757.188 883.906,730.188 883.906,686.388L883.906,568.788C883.906,524.388 913.906,497.388 945.706,497.388L968.506,497.388C978.106,497.388 988.906,502.788 1003.91,518.988C1015.91,532.188 1034.51,507.588 1049.51,494.388C1071.11,475.788 1000.91,435.588 968.506,435.588L945.706,435.588C875.506,435.588 822.106,494.988 822.106,568.788L822.106,686.388Z" style="fill:rgb(3,215,252);fill-rule:nonzero;"/>
            <path d="M1092.71,736.788C1092.71,783.588 1131.11,821.988 1177.91,821.988L1185.11,821.988C1190.51,821.988 1194.71,817.188 1194.71,811.788L1194.71,775.188C1194.71,769.788 1190.51,765.588 1185.11,765.588L1177.91,765.588C1162.31,765.588 1149.11,752.388 1149.11,736.788L1149.11,452.988C1149.11,447.588 1144.31,442.788 1139.51,442.788L1102.31,442.788C1097.51,442.788 1092.71,447.588 1092.71,452.988L1092.71,736.788Z" style="fill:rgb(3,215,252);fill-rule:nonzero;"/>
            <path d="M1211.51,475.788L1211.51,512.388C1211.51,517.788 1216.31,521.988 1221.71,521.988L1258.31,521.988C1263.11,521.988 1267.91,517.788 1267.91,512.388L1267.91,475.788C1267.91,470.388 1263.11,465.588 1258.31,465.588L1221.11,465.588C1216.31,465.588 1211.51,470.388 1211.51,475.788ZM1211.51,566.988L1211.51,808.788C1211.51,814.188 1216.31,818.988 1221.71,818.988L1258.31,818.988C1263.11,818.988 1267.91,814.188 1267.91,808.788L1267.91,566.988C1267.91,561.588 1263.11,556.788 1258.31,556.788L1221.11,556.788C1216.31,556.788 1211.51,561.588 1211.51,566.988Z" style="fill:rgb(3,215,252);fill-rule:nonzero;"/>
            <path d="M1402.91,820.188L1414.31,820.188C1442.51,820.188 1459.31,807.588 1474.31,793.788C1478.51,789.588 1480.31,782.988 1475.51,777.588C1469.51,771.588 1460.51,761.988 1452.11,752.988C1447.31,748.188 1441.31,749.388 1436.51,752.388C1431.11,755.988 1423.31,763.788 1414.31,763.788L1402.91,763.788C1381.31,763.788 1362.71,745.788 1362.71,723.588L1362.71,613.788L1434.11,613.788C1439.51,613.788 1444.31,608.988 1444.31,603.588L1444.31,566.988C1444.31,561.588 1439.51,556.788 1434.11,556.788L1362.71,556.788L1362.71,508.188C1362.71,502.788 1358.51,497.988 1353.11,497.988L1316.51,497.988C1311.11,497.988 1306.31,502.788 1306.31,508.188L1306.31,556.788L1297.91,556.788C1292.51,556.788 1287.71,561.588 1287.71,566.988L1287.71,603.588C1287.71,608.988 1292.51,613.788 1297.91,613.788L1306.31,613.788L1306.31,723.588C1306.31,776.988 1349.51,820.188 1402.91,820.188Z" style="fill:rgb(3,215,252);fill-rule:nonzero;"/>
            <path d="M1579.91,612.588C1598.51,612.588 1606.91,616.788 1611.71,620.988C1615.91,623.988 1623.11,628.788 1629.71,621.588C1634.51,615.588 1642.91,607.188 1652.51,596.388C1657.31,591.588 1657.31,586.188 1651.31,580.188C1638.11,566.988 1605.71,555.588 1591.31,555.588L1579.91,555.588C1526.51,555.588 1483.31,599.388 1483.31,652.788L1483.31,723.588C1483.31,776.988 1526.51,820.188 1579.91,820.188C1612.31,820.188 1627.91,815.388 1651.31,793.788C1656.11,789.588 1656.71,782.388 1653.11,777.588C1645.91,770.388 1638.11,762.588 1629.71,754.188C1624.91,749.388 1618.31,749.988 1613.51,752.988C1606.91,757.188 1600.31,763.788 1591.31,763.788L1579.91,763.788C1558.31,763.788 1539.71,745.788 1539.71,723.588L1539.71,652.788C1539.71,630.588 1557.71,612.588 1579.91,612.588Z" style="fill:rgb(3,215,252);fill-rule:nonzero;"/>
            <path d="M1812.71,652.788L1812.71,808.788C1812.71,814.188 1817.51,818.988 1822.91,818.988L1859.51,818.988C1864.91,818.988 1869.71,814.188 1869.71,808.788L1869.71,652.788C1869.71,598.788 1825.91,555.588 1772.51,555.588C1759.91,555.588 1746.71,558.588 1732.31,564.588L1732.31,452.988C1732.31,447.588 1727.51,442.788 1722.71,442.788L1685.51,442.788C1680.71,442.788 1675.91,447.588 1675.91,452.988L1675.91,808.788C1675.91,814.188 1680.71,818.988 1686.11,818.988L1722.71,818.988C1727.51,818.988 1732.31,814.188 1732.31,808.788L1732.31,652.788C1732.31,630.588 1750.31,612.588 1772.51,612.588C1794.71,612.588 1812.71,630.588 1812.71,652.788Z" style="fill:rgb(3,215,252);fill-rule:nonzero;"/>
            <path d="M2041.91,497.988C2050.91,497.988 2062.31,503.388 2077.31,519.588C2091.11,534.588 2122.91,495.588 2123.51,494.988C2145.71,475.788 2074.31,434.988 2041.91,434.988L2026.91,434.988C1956.11,434.988 1902.71,494.988 1902.71,568.788L1902.71,688.188C1902.71,761.388 1956.11,821.388 2026.91,821.388L2041.91,821.388C2079.71,821.388 2106.71,797.988 2124.11,778.788C2138.51,762.588 2094.71,736.788 2094.11,736.188C2078.51,722.388 2067.11,758.388 2041.91,758.388L2026.91,758.388C1995.11,758.388 1965.71,731.988 1965.71,688.188L1965.71,568.788C1965.71,524.988 1995.11,497.988 2026.91,497.988L2041.91,497.988Z" style="fill:rgb(3,215,252);fill-rule:nonzero;"/>
            <path d="M2286.71,813.588C2288.51,816.588 2292.11,818.988 2295.71,818.988L2332.31,818.988C2337.71,818.988 2342.51,814.188 2342.51,808.788L2342.51,640.188C2342.51,596.988 2307.11,556.188 2262.71,556.188L2229.71,556.188C2204.51,556.188 2185.31,566.988 2169.11,582.588C2163.71,587.388 2164.31,592.788 2169.11,598.788C2176.31,606.588 2185.31,616.188 2193.11,623.988C2197.91,629.388 2203.31,626.988 2208.71,622.788C2214.71,618.588 2221.31,612.588 2229.71,612.588L2262.71,612.588C2274.71,612.588 2286.11,626.388 2286.11,640.188L2286.11,653.388C2275.31,649.788 2266.31,647.988 2257.31,647.988L2234.51,647.988C2187.11,647.988 2148.71,686.388 2148.71,733.788C2148.71,780.588 2187.11,818.988 2234.51,818.988L2257.31,818.988C2266.91,818.988 2275.91,817.188 2286.71,813.588ZM2234.51,704.988L2257.31,704.988C2272.91,704.988 2286.11,717.588 2286.11,733.788C2286.11,749.388 2272.91,762.588 2257.31,762.588L2234.51,762.588C2218.31,762.588 2205.71,749.388 2205.71,733.788C2205.71,717.588 2218.31,704.988 2234.51,704.988Z" style="fill:rgb(3,215,252);fill-rule:nonzero;"/>
            <path d="M2427.71,563.988C2426.51,559.788 2422.31,556.188 2418.11,556.188L2380.91,556.188C2375.51,556.188 2370.71,561.588 2370.71,566.988L2370.71,808.788C2370.71,814.788 2375.51,819.588 2381.51,819.588L2418.11,819.588C2423.51,819.588 2428.31,814.788 2428.31,808.788L2428.31,652.788C2428.31,630.588 2446.31,612.588 2467.91,612.588C2490.11,612.588 2507.51,630.588 2507.51,652.788L2507.51,808.788C2507.51,814.788 2512.91,819.588 2518.31,819.588L2554.91,819.588C2560.31,819.588 2565.11,814.788 2565.11,808.788L2565.11,652.788C2565.11,598.788 2521.91,554.988 2467.91,554.988C2455.31,554.988 2442.11,557.988 2427.71,563.988Z" style="fill:rgb(3,215,252);fill-rule:nonzero;"/>
            <path d="M2683.91,820.188C2697.71,820.188 2709.11,818.988 2724.71,811.188C2725.91,815.988 2729.51,818.988 2734.31,818.988L2770.91,818.988C2776.31,818.988 2781.11,814.188 2781.11,808.788L2781.11,452.988C2781.11,447.588 2776.31,442.788 2770.91,442.788L2734.31,442.788C2728.91,442.788 2724.11,447.588 2724.11,452.988L2724.11,564.588C2709.71,558.588 2697.11,555.588 2683.91,555.588C2630.51,555.588 2587.31,599.388 2587.31,652.788L2587.31,723.588C2587.31,776.988 2630.51,820.188 2683.91,820.188ZM2683.91,612.588C2706.11,612.588 2724.11,630.588 2724.11,652.788L2724.11,723.588C2724.11,745.788 2706.11,763.788 2683.91,763.788C2661.71,763.788 2643.71,745.788 2643.71,723.588L2643.71,652.788C2643.71,630.588 2661.71,612.588 2683.91,612.588Z" style="fill:rgb(3,215,252);fill-rule:nonzero;"/>
            <path d="M2815.31,475.788L2815.31,512.388C2815.31,517.788 2820.11,521.988 2825.51,521.988L2862.11,521.988C2866.91,521.988 2871.71,517.788 2871.71,512.388L2871.71,475.788C2871.71,470.388 2866.91,465.588 2862.11,465.588L2824.91,465.588C2820.11,465.588 2815.31,470.388 2815.31,475.788ZM2815.31,566.988L2815.31,808.788C2815.31,814.188 2820.11,818.988 2825.51,818.988L2862.11,818.988C2866.91,818.988 2871.71,814.188 2871.71,808.788L2871.71,566.988C2871.71,561.588 2866.91,556.788 2862.11,556.788L2824.91,556.788C2820.11,556.788 2815.31,561.588 2815.31,566.988Z" style="fill:rgb(3,215,252);fill-rule:nonzero;"/>
            <path d="M2956.91,723.588L2956.91,716.388L3084.11,716.388C3089.51,716.388 3094.31,711.588 3094.31,706.188L3094.31,652.788C3094.31,599.388 3050.51,555.588 2997.11,555.588C2943.71,555.588 2900.51,599.388 2900.51,652.788L2900.51,723.588C2900.51,776.988 2943.71,820.188 2997.11,820.188L3019.91,820.188C3045.11,820.188 3064.31,809.988 3081.11,793.788C3085.91,789.588 3086.51,782.988 3081.71,778.188C3075.11,770.988 3064.31,760.188 3056.51,752.388C3051.71,747.588 3046.91,749.388 3042.11,752.388C3036.11,756.588 3028.91,763.788 3019.91,763.788L2997.11,763.788C2974.91,763.788 2956.91,745.788 2956.91,723.588ZM2997.11,612.588C3019.31,612.588 3037.31,630.588 3037.31,652.788L3037.31,659.388L2956.91,659.388L2956.91,652.788C2956.91,630.588 2974.91,612.588 2997.11,612.588Z" style="fill:rgb(3,215,252);fill-rule:nonzero;"/>
            <path d="M3184.31,820.188L3218.51,820.188C3262.31,820.188 3298.31,784.788 3298.31,740.388C3298.31,696.588 3262.91,659.388 3218.51,659.388L3193.31,659.388C3180.71,659.388 3169.91,648.588 3169.91,635.388C3169.91,622.788 3180.71,612.588 3193.31,612.588L3218.51,612.588C3226.31,612.588 3234.11,617.388 3241.31,623.988C3246.11,628.188 3251.51,627.588 3256.91,622.788C3264.71,614.988 3271.31,606.588 3279.11,598.188C3283.91,592.188 3283.31,585.588 3277.31,579.588C3263.51,566.988 3232.91,555.588 3218.51,555.588L3193.31,555.588C3148.91,555.588 3113.51,591.588 3113.51,635.388C3113.51,679.188 3148.91,716.388 3193.31,716.388L3218.51,716.388C3231.11,716.388 3241.91,727.788 3241.91,740.388C3241.91,752.988 3231.11,763.788 3218.51,763.788L3184.31,763.788C3176.51,763.788 3168.71,758.388 3161.51,751.788C3156.71,747.588 3150.11,747.588 3145.31,753.588C3138.11,761.388 3131.51,769.188 3123.11,778.788C3118.91,784.188 3118.91,788.988 3123.11,793.788C3135.71,807.588 3169.31,820.188 3184.31,820.188Z" style="fill:rgb(3,215,252);fill-rule:nonzero;"/>
            <path d="M3330.71,565.188L3330.71,604.188C3330.71,609.588 3335.51,614.388 3340.91,614.388L3379.31,614.388C3384.71,614.388 3389.51,609.588 3389.51,604.188L3389.51,565.188C3389.51,559.788 3384.71,555.588 3379.31,555.588L3340.31,555.588C3335.51,555.588 3330.71,559.788 3330.71,565.188ZM3330.71,768.588L3330.71,807.588C3330.71,812.988 3335.51,817.788 3340.91,817.788L3379.31,817.788C3384.71,817.788 3389.51,812.988 3389.51,807.588L3389.51,768.588C3389.51,763.188 3384.71,758.388 3379.31,758.388L3340.31,758.388C3335.51,758.388 3330.71,763.188 3330.71,768.588Z" style="fill:rgb(3,215,252);fill-rule:nonzero;"/>
        </g>
        <g transform="matrix(1.59074,0,0,2.09565,64.7254,-894.389)">
            <path d="M206.546,1027.24C211.046,1027.24 216.746,1029.94 224.246,1038.04C231.146,1045.54 247.046,1026.04 247.346,1025.74C258.446,1016.14 222.746,995.741 206.546,995.741L199.046,995.741C163.646,995.741 136.946,1025.74 136.946,1062.64L136.946,1122.34C136.946,1158.94 163.646,1188.94 199.046,1188.94L206.546,1188.94C225.446,1188.94 238.946,1177.24 247.646,1167.64C254.846,1159.54 232.946,1146.64 232.646,1146.34C224.846,1139.44 219.146,1157.44 206.546,1157.44L199.046,1157.44C183.146,1157.44 168.446,1144.24 168.446,1122.34L168.446,1062.64C168.446,1040.74 183.146,1027.24 199.046,1027.24L206.546,1027.24Z" style="fill:rgb(252,3,152);fill-rule:nonzero;"/>
            <path d="M294.446,1060.84C293.846,1058.44 291.746,1056.64 289.646,1056.64L271.046,1056.64C268.646,1056.64 266.246,1059.04 266.246,1061.74L266.246,1182.64C266.246,1185.34 268.646,1187.74 271.346,1187.74L289.646,1187.74C292.046,1187.74 294.446,1185.34 294.446,1182.64L294.446,1104.64C294.446,1093.54 303.446,1084.54 314.546,1084.54L320.246,1084.54C324.146,1084.54 328.046,1086.94 331.646,1090.24C333.446,1092.04 335.846,1091.74 338.546,1090.24C342.446,1086.34 346.946,1081.84 350.246,1077.64C352.646,1074.64 352.646,1071.34 349.946,1068.34C343.346,1061.74 327.446,1056.04 320.246,1056.04L314.546,1056.04C307.946,1056.04 301.646,1057.54 294.446,1060.84Z" style="fill:rgb(252,3,152);fill-rule:nonzero;"/>
            <path d="M384.446,1140.04L384.446,1136.44L448.046,1136.44C450.746,1136.44 453.146,1134.04 453.146,1131.34L453.146,1104.64C453.146,1077.94 431.246,1056.04 404.546,1056.04C377.846,1056.04 356.246,1077.94 356.246,1104.64L356.246,1140.04C356.246,1166.74 377.846,1188.34 404.546,1188.34L415.946,1188.34C428.546,1188.34 438.146,1183.24 446.546,1175.14C448.946,1173.04 449.246,1169.74 446.846,1167.34C443.546,1163.74 438.146,1158.34 434.246,1154.44C431.846,1152.04 429.446,1152.94 427.046,1154.44C424.046,1156.54 420.446,1160.14 415.946,1160.14L404.546,1160.14C393.446,1160.14 384.446,1151.14 384.446,1140.04ZM404.546,1084.54C415.646,1084.54 424.646,1093.54 424.646,1104.64L424.646,1107.94L384.446,1107.94L384.446,1104.64C384.446,1093.54 393.446,1084.54 404.546,1084.54Z" style="fill:rgb(252,3,152);fill-rule:nonzero;"/>
            <path d="M528.446,1185.04C529.346,1186.54 531.146,1187.74 532.946,1187.74L551.246,1187.74C553.946,1187.74 556.346,1185.34 556.346,1182.64L556.346,1098.34C556.346,1076.74 538.646,1056.34 516.446,1056.34L499.946,1056.34C487.346,1056.34 477.746,1061.74 469.646,1069.54C466.946,1071.94 467.246,1074.64 469.646,1077.64C473.246,1081.54 477.746,1086.34 481.646,1090.24C484.046,1092.94 486.746,1091.74 489.446,1089.64C492.446,1087.54 495.746,1084.54 499.946,1084.54L516.446,1084.54C522.446,1084.54 528.146,1091.44 528.146,1098.34L528.146,1104.94C522.746,1103.14 518.246,1102.24 513.746,1102.24L502.346,1102.24C478.646,1102.24 459.446,1121.44 459.446,1145.14C459.446,1168.54 478.646,1187.74 502.346,1187.74L513.746,1187.74C518.546,1187.74 523.046,1186.84 528.446,1185.04ZM502.346,1130.74L513.746,1130.74C521.546,1130.74 528.146,1137.04 528.146,1145.14C528.146,1152.94 521.546,1159.54 513.746,1159.54L502.346,1159.54C494.246,1159.54 487.946,1152.94 487.946,1145.14C487.946,1137.04 494.246,1130.74 502.346,1130.74Z" style="fill:rgb(252,3,152);fill-rule:nonzero;"/>
            <path d="M620.846,1188.34L626.546,1188.34C640.646,1188.34 649.046,1182.04 656.546,1175.14C658.646,1173.04 659.546,1169.74 657.146,1167.04C654.146,1164.04 649.646,1159.24 645.446,1154.74C643.046,1152.34 640.046,1152.94 637.646,1154.44C634.946,1156.24 631.046,1160.14 626.546,1160.14L620.846,1160.14C610.046,1160.14 600.746,1151.14 600.746,1140.04L600.746,1085.14L636.446,1085.14C639.146,1085.14 641.546,1082.74 641.546,1080.04L641.546,1061.74C641.546,1059.04 639.146,1056.64 636.446,1056.64L600.746,1056.64L600.746,1032.34C600.746,1029.64 598.646,1027.24 595.946,1027.24L577.646,1027.24C574.946,1027.24 572.546,1029.64 572.546,1032.34L572.546,1056.64L568.346,1056.64C565.646,1056.64 563.246,1059.04 563.246,1061.74L563.246,1080.04C563.246,1082.74 565.646,1085.14 568.346,1085.14L572.546,1085.14L572.546,1140.04C572.546,1166.74 594.146,1188.34 620.846,1188.34Z" style="fill:rgb(252,3,152);fill-rule:nonzero;"/>
            <path d="M710.846,1188.34C717.446,1188.34 723.746,1187.14 730.946,1183.84C731.546,1185.64 733.346,1187.74 736.046,1187.74L754.346,1187.74C757.046,1187.74 759.446,1185.34 759.446,1182.64L759.446,1061.74C759.446,1059.04 757.046,1056.64 754.346,1056.64L736.046,1056.64C733.346,1056.64 730.946,1059.04 730.946,1061.74L730.946,1140.04C730.946,1151.14 721.946,1160.14 710.846,1160.14C699.746,1160.14 690.746,1151.14 690.746,1140.04L690.746,1061.74C690.746,1059.04 688.346,1056.64 685.946,1056.64L667.346,1056.64C664.946,1056.64 662.546,1059.04 662.546,1061.74L662.546,1140.04C662.546,1166.74 684.146,1188.34 710.846,1188.34Z" style="fill:rgb(252,3,152);fill-rule:nonzero;"/>
            <path d="M803.246,1060.84C802.646,1058.44 800.546,1056.64 798.446,1056.64L779.846,1056.64C777.446,1056.64 775.046,1059.04 775.046,1061.74L775.046,1182.64C775.046,1185.34 777.446,1187.74 780.146,1187.74L798.446,1187.74C800.846,1187.74 803.246,1185.34 803.246,1182.64L803.246,1104.64C803.246,1093.54 812.246,1084.54 823.346,1084.54L829.046,1084.54C832.946,1084.54 836.846,1086.94 840.446,1090.24C842.246,1092.04 844.646,1091.74 847.346,1090.24C851.246,1086.34 855.746,1081.84 859.046,1077.64C861.446,1074.64 861.446,1071.34 858.746,1068.34C852.146,1061.74 836.246,1056.04 829.046,1056.04L823.346,1056.04C816.746,1056.04 810.446,1057.54 803.246,1060.84Z" style="fill:rgb(252,3,152);fill-rule:nonzero;"/>
            <path d="M893.246,1140.04L893.246,1136.44L956.846,1136.44C959.546,1136.44 961.946,1134.04 961.946,1131.34L961.946,1104.64C961.946,1077.94 940.046,1056.04 913.346,1056.04C886.646,1056.04 865.046,1077.94 865.046,1104.64L865.046,1140.04C865.046,1166.74 886.646,1188.34 913.346,1188.34L924.746,1188.34C937.346,1188.34 946.946,1183.24 955.346,1175.14C957.746,1173.04 958.046,1169.74 955.646,1167.34C952.346,1163.74 946.946,1158.34 943.046,1154.44C940.646,1152.04 938.246,1152.94 935.846,1154.44C932.846,1156.54 929.246,1160.14 924.746,1160.14L913.346,1160.14C902.246,1160.14 893.246,1151.14 893.246,1140.04ZM913.346,1084.54C924.446,1084.54 933.446,1093.54 933.446,1104.64L933.446,1107.94L893.246,1107.94L893.246,1104.64C893.246,1093.54 902.246,1084.54 913.346,1084.54Z" style="fill:rgb(252,3,152);fill-rule:nonzero;"/>
            <path d="M1006.95,1188.34L1024.05,1188.34C1045.95,1188.34 1063.95,1170.64 1063.95,1148.44C1063.95,1126.54 1046.25,1107.94 1024.05,1107.94L1011.45,1107.94C1005.15,1107.94 999.746,1102.54 999.746,1095.94C999.746,1089.64 1005.15,1084.54 1011.45,1084.54L1024.05,1084.54C1027.95,1084.54 1031.85,1086.94 1035.45,1090.24C1037.85,1092.34 1040.55,1092.04 1043.25,1089.64C1047.15,1085.74 1050.45,1081.54 1054.35,1077.34C1056.75,1074.34 1056.45,1071.04 1053.45,1068.04C1046.55,1061.74 1031.25,1056.04 1024.05,1056.04L1011.45,1056.04C989.246,1056.04 971.546,1074.04 971.546,1095.94C971.546,1117.84 989.246,1136.44 1011.45,1136.44L1024.05,1136.44C1030.35,1136.44 1035.75,1142.14 1035.75,1148.44C1035.75,1154.74 1030.35,1160.14 1024.05,1160.14L1006.95,1160.14C1003.05,1160.14 999.146,1157.44 995.546,1154.14C993.146,1152.04 989.846,1152.04 987.446,1155.04C983.846,1158.94 980.546,1162.84 976.346,1167.64C974.246,1170.34 974.246,1172.74 976.346,1175.14C982.646,1182.04 999.446,1188.34 1006.95,1188.34Z" style="fill:rgb(252,3,152);fill-rule:nonzero;"/>
        </g>
    </g>
</svg>
