<?xml version="1.0" encoding="UTF-8" standalone="no"?>
<!DOCTYPE svg PUBLIC "-//W3C//DTD SVG 1.1//EN" "http://www.w3.org/Graphics/SVG/1.1/DTD/svg11.dtd">
<svg width="100%" height="100%" viewBox="0 0 3739 3658" version="1.1" xmlns="http://www.w3.org/2000/svg" xmlns:xlink="http://www.w3.org/1999/xlink" xml:space="preserve" xmlns:serif="http://www.serif.com/" style="fill-rule:evenodd;clip-rule:evenodd;stroke-linejoin:round;stroke-miterlimit:2;">
    <g transform="matrix(4.16667,0,0,4.16667,0,0)">
        <g id="GlitchCandies-X" transform="matrix(1,0,0,1,-46.8569,-43.0187)">
            <rect x="46.857" y="43.019" width="897.308" height="877.795" style="fill:none;"/>
            <g id="GlitchCandies-X1" serif:id="GlitchCandies-X" transform="matrix(1,0,0,1,0.856852,0.0186556)">
                <g>
                    <rect x="324.324" y="108.108" width="27.027" height="27.027"/>
                    <rect x="405.405" y="108.108" width="27.027" height="27.027"/>
                    <rect x="459.459" y="108.108" width="27.027" height="27.027"/>
                    <rect x="486.486" y="108.108" width="27.027" height="27.027"/>
                    <rect x="513.514" y="108.108" width="27.027" height="27.027"/>
                    <rect x="567.568" y="108.108" width="27.027" height="27.027"/>
                    <rect x="648.649" y="108.108" width="27.027" height="27.027"/>
                    <rect x="324.324" y="135.135" width="27.027" height="27.027"/>
                    <rect x="351.351" y="135.135" width="27.027" height="27.027"/>
                    <rect x="459.459" y="135.135" width="27.027" height="27.027"/>
                    <rect x="486.486" y="135.135" width="27.027" height="27.027"/>
                    <rect x="513.514" y="135.135" width="27.027" height="27.027"/>
                    <rect x="567.568" y="135.135" width="27.027" height="27.027"/>
                    <rect x="621.622" y="135.135" width="27.027" height="27.027"/>
                    <rect x="648.649" y="135.135" width="27.027" height="27.027"/>
                    <rect x="324.324" y="162.162" width="27.027" height="27.027"/>
                    <rect x="351.351" y="162.162" width="27.027" height="27.027"/>
                    <rect x="405.405" y="162.162" width="27.027" height="27.027"/>
                    <rect x="459.459" y="162.162" width="27.027" height="27.027"/>
                    <rect x="486.486" y="162.162" width="27.027" height="27.027"/>
                    <rect x="594.595" y="162.162" width="27.027" height="27.027"/>
                    <rect x="648.649" y="162.162" width="27.027" height="27.027"/>
                    <rect x="432.432" y="189.189" width="27.027" height="27.027"/>
                    <rect x="486.486" y="189.189" width="27.027" height="27.027"/>
                    <rect x="513.514" y="189.189" width="27.027" height="27.027"/>
                    <rect x="594.595" y="189.189" width="27.027" height="27.027"/>
                    <rect x="648.649" y="189.189" width="27.027" height="27.027"/>
                    <rect x="324.324" y="216.216" width="27.027" height="27.027"/>
                    <rect x="351.351" y="216.216" width="27.027" height="27.027"/>
                    <rect x="378.378" y="216.216" width="27.027" height="27.027"/>
                    <rect x="405.405" y="216.216" width="27.027" height="27.027"/>
                    <rect x="459.459" y="216.216" width="27.027" height="27.027"/>
                    <rect x="513.514" y="216.216" width="27.027" height="27.027"/>
                    <rect x="567.568" y="216.216" width="27.027" height="27.027"/>
                    <rect x="648.649" y="216.216" width="27.027" height="27.027"/>
                    <rect x="405.405" y="243.243" width="27.027" height="27.027"/>
                    <rect x="432.432" y="243.243" width="27.027" height="27.027"/>
                    <rect x="459.459" y="243.243" width="27.027" height="27.027"/>
                    <rect x="486.486" y="243.243" width="27.027" height="27.027"/>
                    <rect x="621.622" y="243.243" width="27.027" height="27.027"/>
                    <rect x="324.324" y="270.27" width="27.027" height="27.027"/>
                    <rect x="378.378" y="270.27" width="27.027" height="27.027"/>
                    <rect x="432.432" y="270.27" width="27.027" height="27.027"/>
                    <rect x="486.486" y="270.27" width="27.027" height="27.027"/>
                    <rect x="540.541" y="270.27" width="27.027" height="27.027"/>
                    <rect x="594.595" y="270.27" width="27.027" height="27.027"/>
                    <rect x="648.649" y="270.27" width="27.027" height="27.027"/>
                    <rect x="351.351" y="297.297" width="27.027" height="27.027"/>
                    <rect x="378.378" y="297.297" width="27.027" height="27.027"/>
                    <rect x="405.405" y="297.297" width="27.027" height="27.027"/>
                    <rect x="486.486" y="297.297" width="27.027" height="27.027"/>
                    <rect x="567.568" y="297.297" width="27.027" height="27.027"/>
                    <rect x="594.595" y="297.297" width="27.027" height="27.027"/>
                    <rect x="108.108" y="324.324" width="27.027" height="27.027"/>
                    <rect x="189.189" y="324.324" width="27.027" height="27.027"/>
                    <rect x="216.216" y="324.324" width="27.027" height="27.027"/>
                    <rect x="243.243" y="324.324" width="27.027" height="27.027"/>
                    <rect x="270.27" y="324.324" width="27.027" height="27.027"/>
                    <rect x="297.297" y="324.324" width="27.027" height="27.027"/>
                    <rect x="324.324" y="324.324" width="27.027" height="27.027"/>
                    <rect x="351.351" y="324.324" width="27.027" height="27.027"/>
                    <rect x="432.432" y="324.324" width="27.027" height="27.027"/>
                    <rect x="459.459" y="324.324" width="27.027" height="27.027"/>
                    <rect x="486.486" y="324.324" width="27.027" height="27.027"/>
                    <rect x="513.514" y="324.324" width="27.027" height="27.027"/>
                    <rect x="540.541" y="324.324" width="27.027" height="27.027"/>
                    <rect x="567.568" y="324.324" width="27.027" height="27.027"/>
                    <rect x="621.622" y="324.324" width="27.027" height="27.027"/>
                    <rect x="648.649" y="324.324" width="27.027" height="27.027"/>
                    <rect x="675.676" y="324.324" width="27.027" height="27.027"/>
                    <rect x="756.757" y="324.324" width="27.027" height="27.027"/>
                    <rect x="810.811" y="324.324" width="27.027" height="27.027"/>
                    <rect x="837.838" y="324.324" width="27.027" height="27.027"/>
                    <rect x="864.865" y="324.324" width="27.027" height="27.027"/>
                    <rect x="108.108" y="351.351" width="27.027" height="27.027"/>
                    <rect x="135.135" y="351.351" width="27.027" height="27.027"/>
                    <rect x="216.216" y="351.351" width="27.027" height="27.027"/>
                    <rect x="297.297" y="351.351" width="27.027" height="27.027"/>
                    <rect x="324.324" y="351.351" width="27.027" height="27.027"/>
                    <rect x="351.351" y="351.351" width="27.027" height="27.027"/>
                    <rect x="405.405" y="351.351" width="27.027" height="27.027"/>
                    <rect x="486.486" y="351.351" width="27.027" height="27.027"/>
                    <rect x="594.595" y="351.351" width="27.027" height="27.027"/>
                    <rect x="621.622" y="351.351" width="27.027" height="27.027"/>
                    <rect x="648.649" y="351.351" width="27.027" height="27.027"/>
                    <rect x="675.676" y="351.351" width="27.027" height="27.027"/>
                    <rect x="756.757" y="351.351" width="27.027" height="27.027"/>
                    <rect x="783.784" y="351.351" width="27.027" height="27.027"/>
                    <rect x="810.811" y="351.351" width="27.027" height="27.027"/>
                    <rect x="864.865" y="351.351" width="27.027" height="27.027"/>
                    <rect x="135.135" y="378.378" width="27.027" height="27.027"/>
                    <rect x="243.243" y="378.378" width="27.027" height="27.027"/>
                    <rect x="270.27" y="378.378" width="27.027" height="27.027"/>
                    <rect x="324.324" y="378.378" width="27.027" height="27.027"/>
                    <rect x="351.351" y="378.378" width="27.027" height="27.027"/>
                    <rect x="405.405" y="378.378" width="27.027" height="27.027"/>
                    <rect x="432.432" y="378.378" width="27.027" height="27.027"/>
                    <rect x="486.486" y="378.378" width="27.027" height="27.027"/>
                    <rect x="648.649" y="378.378" width="27.027" height="27.027"/>
                    <rect x="729.73" y="378.378" width="27.027" height="27.027"/>
                    <rect x="783.784" y="378.378" width="27.027" height="27.027"/>
                    <rect x="135.135" y="405.405" width="27.027" height="27.027"/>
                    <rect x="189.189" y="405.405" width="27.027" height="27.027"/>
                    <rect x="378.378" y="405.405" width="27.027" height="27.027"/>
                    <rect x="405.405" y="405.405" width="27.027" height="27.027"/>
                    <rect x="486.486" y="405.405" width="27.027" height="27.027"/>
                    <rect x="513.514" y="405.405" width="27.027" height="27.027"/>
                    <rect x="567.568" y="405.405" width="27.027" height="27.027"/>
                    <rect x="594.595" y="405.405" width="27.027" height="27.027"/>
                    <rect x="621.622" y="405.405" width="27.027" height="27.027"/>
                    <rect x="648.649" y="405.405" width="27.027" height="27.027"/>
                    <rect x="756.757" y="405.405" width="27.027" height="27.027"/>
                    <rect x="783.784" y="405.405" width="27.027" height="27.027"/>
                    <rect x="837.838" y="405.405" width="27.027" height="27.027"/>
                    <rect x="108.108" y="432.432" width="27.027" height="27.027"/>
                    <rect x="135.135" y="432.432" width="27.027" height="27.027"/>
                    <rect x="189.189" y="432.432" width="27.027" height="27.027"/>
                    <rect x="243.243" y="432.432" width="27.027" height="27.027"/>
                    <rect x="270.27" y="432.432" width="27.027" height="27.027"/>
                    <rect x="324.324" y="432.432" width="27.027" height="27.027"/>
                    <rect x="378.378" y="432.432" width="27.027" height="27.027"/>
                    <rect x="405.405" y="432.432" width="27.027" height="27.027"/>
                    <rect x="459.459" y="432.432" width="27.027" height="27.027"/>
                    <rect x="486.486" y="432.432" width="27.027" height="27.027"/>
                    <rect x="567.568" y="432.432" width="27.027" height="27.027"/>
                    <rect x="621.622" y="432.432" width="27.027" height="27.027"/>
                    <rect x="648.649" y="432.432" width="27.027" height="27.027"/>
                    <rect x="729.73" y="432.432" width="27.027" height="27.027"/>
                    <rect x="783.784" y="432.432" width="27.027" height="27.027"/>
                    <rect x="810.811" y="432.432" width="27.027" height="27.027"/>
                    <rect x="864.865" y="432.432" width="27.027" height="27.027"/>
                    <rect x="135.135" y="459.459" width="27.027" height="27.027"/>
                    <rect x="162.162" y="459.459" width="27.027" height="27.027"/>
                    <rect x="189.189" y="459.459" width="27.027" height="27.027"/>
                    <rect x="351.351" y="459.459" width="27.027" height="27.027"/>
                    <rect x="378.378" y="459.459" width="27.027" height="27.027"/>
                    <rect x="432.432" y="459.459" width="27.027" height="27.027"/>
                    <rect x="594.595" y="459.459" width="27.027" height="27.027"/>
                    <rect x="621.622" y="459.459" width="27.027" height="27.027"/>
                    <rect x="675.676" y="459.459" width="27.027" height="27.027"/>
                    <rect x="702.703" y="459.459" width="27.027" height="27.027"/>
                    <rect x="729.73" y="459.459" width="27.027" height="27.027"/>
                    <rect x="810.811" y="459.459" width="27.027" height="27.027"/>
                    <rect x="108.108" y="486.486" width="27.027" height="27.027"/>
                    <rect x="162.162" y="486.486" width="27.027" height="27.027"/>
                    <rect x="189.189" y="486.486" width="27.027" height="27.027"/>
                    <rect x="216.216" y="486.486" width="27.027" height="27.027"/>
                    <rect x="270.27" y="486.486" width="27.027" height="27.027"/>
                    <rect x="297.297" y="486.486" width="27.027" height="27.027"/>
                    <rect x="351.351" y="486.486" width="27.027" height="27.027"/>
                    <rect x="405.405" y="486.486" width="27.027" height="27.027"/>
                    <rect x="432.432" y="486.486" width="27.027" height="27.027"/>
                    <rect x="486.486" y="486.486" width="27.027" height="27.027"/>
                    <rect x="513.514" y="486.486" width="27.027" height="27.027"/>
                    <rect x="567.568" y="486.486" width="27.027" height="27.027"/>
                    <rect x="621.622" y="486.486" width="27.027" height="27.027"/>
                    <rect x="648.649" y="486.486" width="27.027" height="27.027"/>
                    <rect x="702.703" y="486.486" width="27.027" height="27.027"/>
                    <rect x="810.811" y="486.486" width="27.027" height="27.027"/>
                    <rect x="837.838" y="486.486" width="27.027" height="27.027"/>
                    <rect x="189.189" y="513.514" width="27.027" height="27.027"/>
                    <rect x="243.243" y="513.514" width="27.027" height="27.027"/>
                    <rect x="324.324" y="513.514" width="27.027" height="27.027"/>
                    <rect x="351.351" y="513.514" width="27.027" height="27.027"/>
                    <rect x="459.459" y="513.514" width="27.027" height="27.027"/>
                    <rect x="486.486" y="513.514" width="27.027" height="27.027"/>
                    <rect x="540.541" y="513.514" width="27.027" height="27.027"/>
                    <rect x="567.568" y="513.514" width="27.027" height="27.027"/>
                    <rect x="594.595" y="513.514" width="27.027" height="27.027"/>
                    <rect x="621.622" y="513.514" width="27.027" height="27.027"/>
                    <rect x="756.757" y="513.514" width="27.027" height="27.027"/>
                    <rect x="810.811" y="513.514" width="27.027" height="27.027"/>
                    <rect x="108.108" y="540.541" width="27.027" height="27.027"/>
                    <rect x="189.189" y="540.541" width="27.027" height="27.027"/>
                    <rect x="243.243" y="540.541" width="27.027" height="27.027"/>
                    <rect x="270.27" y="540.541" width="27.027" height="27.027"/>
                    <rect x="324.324" y="540.541" width="27.027" height="27.027"/>
                    <rect x="351.351" y="540.541" width="27.027" height="27.027"/>
                    <rect x="432.432" y="540.541" width="27.027" height="27.027"/>
                    <rect x="513.514" y="540.541" width="27.027" height="27.027"/>
                    <rect x="567.568" y="540.541" width="27.027" height="27.027"/>
                    <rect x="594.595" y="540.541" width="27.027" height="27.027"/>
                    <rect x="702.703" y="540.541" width="27.027" height="27.027"/>
                    <rect x="729.73" y="540.541" width="27.027" height="27.027"/>
                    <rect x="756.757" y="540.541" width="27.027" height="27.027"/>
                    <rect x="810.811" y="540.541" width="27.027" height="27.027"/>
                    <rect x="108.108" y="567.568" width="27.027" height="27.027"/>
                    <rect x="162.162" y="567.568" width="27.027" height="27.027"/>
                    <rect x="216.216" y="567.568" width="27.027" height="27.027"/>
                    <rect x="405.405" y="567.568" width="27.027" height="27.027"/>
                    <rect x="567.568" y="567.568" width="27.027" height="27.027"/>
                    <rect x="675.676" y="567.568" width="27.027" height="27.027"/>
                    <rect x="702.703" y="567.568" width="27.027" height="27.027"/>
                    <rect x="729.73" y="567.568" width="27.027" height="27.027"/>
                    <rect x="783.784" y="567.568" width="27.027" height="27.027"/>
                    <rect x="837.838" y="567.568" width="27.027" height="27.027"/>
                    <rect x="108.108" y="594.595" width="27.027" height="27.027"/>
                    <rect x="135.135" y="594.595" width="27.027" height="27.027"/>
                    <rect x="189.189" y="594.595" width="27.027" height="27.027"/>
                    <rect x="243.243" y="594.595" width="27.027" height="27.027"/>
                    <rect x="270.27" y="594.595" width="27.027" height="27.027"/>
                    <rect x="297.297" y="594.595" width="27.027" height="27.027"/>
                    <rect x="378.378" y="594.595" width="27.027" height="27.027"/>
                    <rect x="432.432" y="594.595" width="27.027" height="27.027"/>
                    <rect x="459.459" y="594.595" width="27.027" height="27.027"/>
                    <rect x="486.486" y="594.595" width="27.027" height="27.027"/>
                    <rect x="540.541" y="594.595" width="27.027" height="27.027"/>
                    <rect x="648.649" y="594.595" width="27.027" height="27.027"/>
                    <rect x="675.676" y="594.595" width="27.027" height="27.027"/>
                    <rect x="702.703" y="594.595" width="27.027" height="27.027"/>
                    <rect x="837.838" y="594.595" width="27.027" height="27.027"/>
                    <rect x="108.108" y="621.622" width="27.027" height="27.027"/>
                    <rect x="135.135" y="621.622" width="27.027" height="27.027"/>
                    <rect x="324.324" y="621.622" width="27.027" height="27.027"/>
                    <rect x="405.405" y="621.622" width="27.027" height="27.027"/>
                    <rect x="459.459" y="621.622" width="27.027" height="27.027"/>
                    <rect x="513.514" y="621.622" width="27.027" height="27.027"/>
                    <rect x="540.541" y="621.622" width="27.027" height="27.027"/>
                    <rect x="594.595" y="621.622" width="27.027" height="27.027"/>
                    <rect x="702.703" y="621.622" width="27.027" height="27.027"/>
                    <rect x="729.73" y="621.622" width="27.027" height="27.027"/>
                    <rect x="756.757" y="621.622" width="27.027" height="27.027"/>
                    <rect x="783.784" y="621.622" width="27.027" height="27.027"/>
                    <rect x="810.811" y="621.622" width="27.027" height="27.027"/>
                    <rect x="837.838" y="621.622" width="27.027" height="27.027"/>
                    <rect x="108.108" y="648.649" width="27.027" height="27.027"/>
                    <rect x="135.135" y="648.649" width="27.027" height="27.027"/>
                    <rect x="216.216" y="648.649" width="27.027" height="27.027"/>
                    <rect x="270.27" y="648.649" width="27.027" height="27.027"/>
                    <rect x="297.297" y="648.649" width="27.027" height="27.027"/>
                    <rect x="324.324" y="648.649" width="27.027" height="27.027"/>
                    <rect x="378.378" y="648.649" width="27.027" height="27.027"/>
                    <rect x="405.405" y="648.649" width="27.027" height="27.027"/>
                    <rect x="432.432" y="648.649" width="27.027" height="27.027"/>
                    <rect x="459.459" y="648.649" width="27.027" height="27.027"/>
                    <rect x="621.622" y="648.649" width="27.027" height="27.027"/>
                    <rect x="648.649" y="648.649" width="27.027" height="27.027"/>
                    <rect x="675.676" y="648.649" width="27.027" height="27.027"/>
                    <rect x="702.703" y="648.649" width="27.027" height="27.027"/>
                    <rect x="729.73" y="648.649" width="27.027" height="27.027"/>
                    <rect x="756.757" y="648.649" width="27.027" height="27.027"/>
                    <rect x="810.811" y="648.649" width="27.027" height="27.027"/>
                    <rect x="837.838" y="648.649" width="27.027" height="27.027"/>
                    <rect x="864.865" y="648.649" width="27.027" height="27.027"/>
                    <rect x="324.324" y="675.676" width="27.027" height="27.027"/>
                    <rect x="351.351" y="675.676" width="27.027" height="27.027"/>
                    <rect x="378.378" y="675.676" width="27.027" height="27.027"/>
                    <rect x="459.459" y="675.676" width="27.027" height="27.027"/>
                    <rect x="540.541" y="675.676" width="27.027" height="27.027"/>
                    <rect x="648.649" y="675.676" width="27.027" height="27.027"/>
                    <rect x="756.757" y="675.676" width="27.027" height="27.027"/>
                    <rect x="810.811" y="675.676" width="27.027" height="27.027"/>
                    <rect x="864.865" y="675.676" width="27.027" height="27.027"/>
                    <rect x="324.324" y="702.703" width="27.027" height="27.027"/>
                    <rect x="351.351" y="702.703" width="27.027" height="27.027"/>
                    <rect x="432.432" y="702.703" width="27.027" height="27.027"/>
                    <rect x="459.459" y="702.703" width="27.027" height="27.027"/>
                    <rect x="513.514" y="702.703" width="27.027" height="27.027"/>
                    <rect x="540.541" y="702.703" width="27.027" height="27.027"/>
                    <rect x="648.649" y="702.703" width="27.027" height="27.027"/>
                    <rect x="702.703" y="702.703" width="27.027" height="27.027"/>
                    <rect x="756.757" y="702.703" width="27.027" height="27.027"/>
                    <rect x="783.784" y="702.703" width="27.027" height="27.027"/>
                    <rect x="324.324" y="729.73" width="27.027" height="27.027"/>
                    <rect x="405.405" y="729.73" width="27.027" height="27.027"/>
                    <rect x="459.459" y="729.73" width="27.027" height="27.027"/>
                    <rect x="540.541" y="729.73" width="27.027" height="27.027"/>
                    <rect x="567.568" y="729.73" width="27.027" height="27.027"/>
                    <rect x="621.622" y="729.73" width="27.027" height="27.027"/>
                    <rect x="648.649" y="729.73" width="27.027" height="27.027"/>
                    <rect x="756.757" y="729.73" width="27.027" height="27.027"/>
                    <rect x="810.811" y="729.73" width="27.027" height="27.027"/>
                    <rect x="324.324" y="756.757" width="27.027" height="27.027"/>
                    <rect x="378.378" y="756.757" width="27.027" height="27.027"/>
                    <rect x="432.432" y="756.757" width="27.027" height="27.027"/>
                    <rect x="459.459" y="756.757" width="27.027" height="27.027"/>
                    <rect x="513.514" y="756.757" width="27.027" height="27.027"/>
                    <rect x="540.541" y="756.757" width="27.027" height="27.027"/>
                    <rect x="594.595" y="756.757" width="27.027" height="27.027"/>
                    <rect x="648.649" y="756.757" width="27.027" height="27.027"/>
                    <rect x="675.676" y="756.757" width="27.027" height="27.027"/>
                    <rect x="702.703" y="756.757" width="27.027" height="27.027"/>
                    <rect x="729.73" y="756.757" width="27.027" height="27.027"/>
                    <rect x="756.757" y="756.757" width="27.027" height="27.027"/>
                    <rect x="783.784" y="756.757" width="27.027" height="27.027"/>
                    <rect x="837.838" y="756.757" width="27.027" height="27.027"/>
                    <rect x="324.324" y="783.784" width="27.027" height="27.027"/>
                    <rect x="405.405" y="783.784" width="27.027" height="27.027"/>
                    <rect x="459.459" y="783.784" width="27.027" height="27.027"/>
                    <rect x="486.486" y="783.784" width="27.027" height="27.027"/>
                    <rect x="540.541" y="783.784" width="27.027" height="27.027"/>
                    <rect x="621.622" y="783.784" width="27.027" height="27.027"/>
                    <rect x="675.676" y="783.784" width="27.027" height="27.027"/>
                    <rect x="702.703" y="783.784" width="27.027" height="27.027"/>
                    <rect x="729.73" y="783.784" width="27.027" height="27.027"/>
                    <rect x="783.784" y="783.784" width="27.027" height="27.027"/>
                    <rect x="810.811" y="783.784" width="27.027" height="27.027"/>
                    <rect x="837.838" y="783.784" width="27.027" height="27.027"/>
                    <rect x="351.351" y="810.811" width="27.027" height="27.027"/>
                    <rect x="378.378" y="810.811" width="27.027" height="27.027"/>
                    <rect x="405.405" y="810.811" width="27.027" height="27.027"/>
                    <rect x="486.486" y="810.811" width="27.027" height="27.027"/>
                    <rect x="540.541" y="810.811" width="27.027" height="27.027"/>
                    <rect x="594.595" y="810.811" width="27.027" height="27.027"/>
                    <rect x="729.73" y="810.811" width="27.027" height="27.027"/>
                    <rect x="783.784" y="810.811" width="27.027" height="27.027"/>
                    <rect x="810.811" y="810.811" width="27.027" height="27.027"/>
                    <rect x="837.838" y="810.811" width="27.027" height="27.027"/>
                    <rect x="864.865" y="810.811" width="27.027" height="27.027"/>
                    <rect x="351.351" y="837.838" width="27.027" height="27.027"/>
                    <rect x="378.378" y="837.838" width="27.027" height="27.027"/>
                    <rect x="405.405" y="837.838" width="27.027" height="27.027"/>
                    <rect x="513.514" y="837.838" width="27.027" height="27.027"/>
                    <rect x="594.595" y="837.838" width="27.027" height="27.027"/>
                    <rect x="621.622" y="837.838" width="27.027" height="27.027"/>
                    <rect x="675.676" y="837.838" width="27.027" height="27.027"/>
                    <rect x="702.703" y="837.838" width="27.027" height="27.027"/>
                    <rect x="783.784" y="837.838" width="27.027" height="27.027"/>
                    <rect x="837.838" y="837.838" width="27.027" height="27.027"/>
                    <rect x="324.324" y="864.865" width="27.027" height="27.027"/>
                    <rect x="351.351" y="864.865" width="27.027" height="27.027"/>
                    <rect x="486.486" y="864.865" width="27.027" height="27.027"/>
                    <rect x="567.568" y="864.865" width="27.027" height="27.027"/>
                    <rect x="594.595" y="864.865" width="27.027" height="27.027"/>
                    <rect x="621.622" y="864.865" width="27.027" height="27.027"/>
                    <rect x="648.649" y="864.865" width="27.027" height="27.027"/>
                    <rect x="675.676" y="864.865" width="27.027" height="27.027"/>
                    <rect x="702.703" y="864.865" width="27.027" height="27.027"/>
                    <rect x="729.73" y="864.865" width="27.027" height="27.027"/>
                    <rect x="756.757" y="864.865" width="27.027" height="27.027"/>
                    <rect x="783.784" y="864.865" width="27.027" height="27.027"/>
                    <path d="M108.108,108.108L297.297,108.108L297.297,297.297L108.108,297.297L108.108,108.108ZM135.135,135.135L270.27,135.135L270.27,270.27L135.135,270.27L135.135,135.135Z"/>
                    <path d="M702.703,108.108L891.892,108.108L891.892,297.297L702.703,297.297L702.703,108.108ZM729.73,135.135L864.865,135.135L864.865,270.27L729.73,270.27L729.73,135.135Z"/>
                    <rect x="162.162" y="162.162" width="81.081" height="81.081"/>
                    <rect x="756.757" y="162.162" width="81.081" height="81.081"/>
                    <path d="M108.108,702.703L297.297,702.703L297.297,891.892L108.108,891.892L108.108,702.703ZM135.135,729.73L270.27,729.73L270.27,864.865L135.135,864.865L135.135,729.73Z"/>
                    <rect x="162.162" y="756.757" width="81.081" height="81.081"/>
                </g>
            </g>
        </g>
    </g>
</svg>
