<?xml version="1.0" encoding="UTF-8" standalone="no"?>
<!DOCTYPE svg PUBLIC "-//W3C//DTD SVG 1.1//EN" "http://www.w3.org/Graphics/SVG/1.1/DTD/svg11.dtd">
<svg width="100%" height="100%" viewBox="0 0 1615 1847" version="1.1" xmlns="http://www.w3.org/2000/svg" xmlns:xlink="http://www.w3.org/1999/xlink" xml:space="preserve" xmlns:serif="http://www.serif.com/" style="fill-rule:evenodd;clip-rule:evenodd;stroke-linejoin:round;stroke-miterlimit:2;">
    <g transform="matrix(4.16667,0,0,4.16667,0,0)">
        <g transform="matrix(1,0,0,1,-17.4604,-14.3495)">
            <path d="M28.383,47.414C26.377,45.367 24.371,43.32 22.268,41.378L22.266,41.378C19.079,38.434 19.525,35.516 22.411,32.758C23.079,32.12 23.711,31.441 24.341,30.763L24.341,30.763C25.299,29.733 26.254,28.706 27.332,27.832C29.645,25.975 31.805,23.936 33.791,21.733C34.241,21.23 34.753,20.788 35.267,20.344C36.306,19.446 37.351,18.543 37.898,17.12C38.253,16.192 39.719,16.088 40.812,16.072C44.115,16.024 47.419,16 50.721,16L219.748,16L219.748,16.015C277.35,16.014 334.952,16.016 392.555,16.021C394.014,16.021 395.472,16.039 396.931,16.057L397.781,16.068C400.399,16.099 400.85,16.523 400.857,19.107C400.883,27.875 400.897,36.642 400.897,45.408C400.897,46.854 400.881,48.3 400.865,49.745C400.838,52.143 400.811,54.541 400.859,56.937C400.949,61.406 399.32,65.339 397.463,69.266C395.664,73.072 392.755,75.923 389.845,78.776L389.845,78.776L389.841,78.78C389.369,79.242 388.897,79.705 388.429,80.172C386.774,81.825 385.136,83.495 383.498,85.165L383.498,85.166L383.497,85.166C380.983,87.73 378.468,90.295 375.887,92.798C374.131,94.501 372.419,96.25 370.706,97.999C368.639,100.111 366.572,102.222 364.425,104.255C364.048,104.612 363.621,104.966 363.195,105.319L363.194,105.319L363.194,105.32C362.291,106.067 361.392,106.811 360.983,107.574C360.417,108.624 359.642,109.391 358.875,110.148C358.375,110.643 357.879,111.133 357.447,111.696C355.648,113.927 353.659,115.999 351.503,117.887C349.292,119.92 347.215,122.079 345.14,124.238L345.139,124.238C343.942,125.483 342.746,126.727 341.524,127.946C341.018,128.45 340.417,128.841 339.834,129.22C339.176,129.649 338.541,130.062 338.091,130.606C337.424,131.412 336.666,132.113 335.912,132.812C335.149,133.518 334.388,134.223 333.727,135.03C331.944,137.132 330.034,139.123 328.006,140.99C326.185,142.722 324.413,144.502 322.641,146.281L322.639,146.283C320.937,147.992 319.236,149.701 317.492,151.367C316.932,151.902 316.54,152.555 316.147,153.211C315.636,154.062 315.123,154.917 314.239,155.524C311.971,157.078 310.145,159.105 308.318,161.133C307.467,162.078 306.616,163.023 305.72,163.92C305.41,164.228 304.998,164.356 304.603,164.478C304.117,164.629 303.657,164.772 303.441,165.234C302.223,167.845 299.897,168.987 297.593,170.119C296.884,170.467 296.177,170.814 295.505,171.203C291.323,173.623 286.56,174.453 281.838,174.494C269.729,174.598 257.619,174.569 245.509,174.54C240.502,174.528 235.494,174.516 230.487,174.514C226.926,174.512 223.364,174.507 219.803,174.502C209.372,174.487 198.942,174.472 188.508,174.539C181.376,174.585 175.614,171.743 170.653,166.858C169.986,166.201 169.272,165.583 168.559,164.966C167.3,163.876 166.044,162.789 165.052,161.495C164.103,160.257 162.992,159.221 161.883,158.187L161.883,158.186C161.272,157.616 160.661,157.047 160.079,156.445C159.144,155.479 158.159,154.561 157.174,153.643C155.904,152.459 154.635,151.275 153.476,149.992C152.235,148.617 150.913,147.328 149.591,146.038L149.59,146.038C148.361,144.839 147.132,143.64 145.969,142.374C145.443,141.801 144.819,141.291 144.202,140.787C143.425,140.154 142.659,139.528 142.111,138.794C141.101,137.44 139.857,136.33 138.616,135.222C137.199,133.958 135.788,132.698 134.737,131.086C134.237,130.32 133.541,129.757 132.836,129.187C132.33,128.778 131.82,128.365 131.375,127.871C127.407,123.465 123.171,119.294 118.85,115.215C118.093,114.5 117.366,113.719 116.64,112.939C116.349,112.625 116.057,112.312 115.764,112.003C115.402,111.645 115.116,111.218 114.922,110.747C114.729,110.276 114.632,109.771 114.638,109.262C114.642,106.756 114.642,104.251 114.643,101.745C114.644,96.085 114.645,90.425 114.689,84.765C114.705,82.68 116.05,81.648 118.492,81.641C126.541,81.625 134.59,81.617 142.638,81.617C144.669,81.617 146.7,81.628 148.731,81.64C153.548,81.666 158.366,81.693 163.18,81.567C164.316,81.518 165.449,81.726 166.495,82.174C167.54,82.623 168.471,83.301 169.22,84.158C170.173,85.184 171.172,86.168 172.168,87.15L172.168,87.15C173.302,88.267 174.433,89.381 175.49,90.551C177.039,92.264 178.652,93.909 180.265,95.552L180.265,95.553L180.267,95.555L180.268,95.556C180.963,96.264 181.658,96.973 182.348,97.686C182.861,98.217 183.372,98.749 183.884,99.281C185.779,101.252 187.676,103.224 189.659,105.117C192.332,107.559 194.804,110.21 197.053,113.047C199.573,116.379 202.528,117.423 206.653,117.15C209.213,116.98 211.806,117.046 214.4,117.112L214.401,117.112C215.717,117.145 217.034,117.179 218.347,117.182C230.599,117.194 242.85,117.204 255.101,117.211C259.181,117.213 263.262,117.211 267.342,117.203C269.637,117.199 271.629,116.672 273.281,114.81C274.132,113.85 275.095,112.986 276.056,112.122L276.057,112.122C277.198,111.097 278.338,110.073 279.289,108.894C281.601,106.026 284.223,103.478 286.845,100.931L286.846,100.931L286.847,100.93C287.799,100.004 288.752,99.079 289.689,98.138C291.358,96.464 293.081,94.842 294.804,93.22L294.805,93.219C297.34,90.833 299.874,88.447 302.233,85.898C303.535,84.491 304.898,83.156 306.26,81.822C307.344,80.76 308.427,79.698 309.478,78.602C309.894,78.171 310.256,77.69 310.555,77.17C311.706,75.139 311.056,73.726 308.742,73.545C306.868,73.399 304.981,73.405 303.097,73.412C302.699,73.414 302.3,73.415 301.902,73.415C269.047,73.386 236.191,73.372 203.335,73.372C176.008,73.383 148.682,73.394 121.355,73.406C104.605,73.394 87.855,73.405 71.105,73.438C67.2,73.449 63.362,72.805 59.55,72.166C59.233,72.113 58.916,72.06 58.599,72.007C57.175,71.77 55.83,71.103 54.478,70.432C53.608,70.001 52.735,69.568 51.836,69.247C49.535,68.425 47.934,66.764 46.343,65.112C45.759,64.505 45.176,63.9 44.56,63.339C41.236,60.309 38.055,57.123 34.875,53.936L34.875,53.936L34.874,53.935C33.789,52.848 32.703,51.761 31.613,50.68C30.526,49.602 29.454,48.508 28.383,47.414ZM26.07,357.649L26.032,357.572L26.031,357.569C26.229,356.706 25.714,356.182 25.209,355.669L25.208,355.667C25.129,355.586 25.049,355.506 24.974,355.425C24.07,354.514 23.371,353.421 22.923,352.218C22.475,351.016 22.289,349.731 22.376,348.451C22.528,345.142 22.497,341.825 22.465,338.508C22.45,336.899 22.435,335.291 22.441,333.684C22.455,329.335 22.925,328.863 27.332,328.86C45.411,328.848 63.49,328.842 81.568,328.842C103.129,328.82 124.691,328.833 146.252,328.882C147.075,328.895 147.892,328.734 148.649,328.411C149.406,328.088 150.086,327.609 150.646,327.006C154.803,323.072 158.82,319.011 162.782,314.885C164.355,313.247 165.957,311.635 167.558,310.024L167.56,310.022C169.51,308.06 171.46,306.097 173.36,304.086C173.699,303.726 174.179,303.5 174.62,303.292C175.143,303.046 175.613,302.824 175.735,302.433C176.134,301.138 177.035,300.369 177.93,299.605C178.329,299.265 178.726,298.926 179.077,298.542C181.065,296.378 183.113,294.278 185.223,292.242C186.849,290.672 188.426,289.049 190.001,287.427C192.324,285.036 194.645,282.646 197.123,280.43C198.504,279.195 199.811,277.886 201.116,276.577C202.761,274.928 204.405,273.28 206.195,271.786C206.909,271.19 207.467,270.464 208.025,269.737C208.67,268.898 209.315,268.057 210.204,267.412C210.446,267.236 210.688,267.06 210.93,266.885C213.945,264.693 216.943,262.514 220.439,261.063C225.378,259.011 230.549,258.992 235.744,258.984C257.366,258.937 278.987,258.903 300.608,258.881C306.023,258.875 311.437,258.883 316.85,258.892L316.852,258.892C323.751,258.903 330.649,258.914 337.547,258.895C357.367,258.815 377.184,258.738 397,258.665C397.922,258.661 398.845,258.708 399.767,258.755L399.769,258.755C400.044,258.769 400.32,258.783 400.596,258.795C402.799,258.896 403.488,259.499 403.546,261.74C403.617,264.496 403.624,267.254 403.631,270.012L403.631,270.043C403.634,270.998 403.636,271.953 403.641,272.907C403.645,273.553 403.636,274.2 403.627,274.847C403.609,276.123 403.592,277.399 403.671,278.669C403.723,279.51 403.595,280.352 403.294,281.138C402.994,281.925 402.528,282.638 401.929,283.23C399.923,285.367 397.877,287.463 395.791,289.518C395.545,289.732 395.35,289.998 395.219,290.296C395.088,290.594 395.024,290.918 395.033,291.244L395.005,291.265C394.681,291.242 394.357,291.306 394.066,291.45C393.775,291.595 393.529,291.815 393.352,292.088C392.78,292.786 392.163,293.447 391.546,294.108C390.939,294.759 390.332,295.41 389.767,296.096C389.074,296.935 388.296,297.699 387.518,298.463L387.518,298.464C386.264,299.695 385.01,300.926 384.115,302.473C383.876,302.307 383.846,302.452 383.853,302.651C382.9,303.372 382.015,304.177 381.208,305.058C378.178,308.22 374.922,311.126 370.892,312.948C366.223,315.002 361.165,316.023 356.066,315.941C330.009,315.946 303.953,315.952 277.898,315.961C275.255,315.962 272.613,315.968 269.971,315.975L269.966,315.975C262.042,315.995 254.117,316.014 246.195,315.881C245.056,315.801 243.914,315.984 242.856,316.415C241.799,316.846 240.855,317.515 240.096,318.368C236.88,321.775 233.562,325.088 230.246,328.398L229.631,329.012C228.43,330.212 227.203,331.387 225.977,332.562L225.976,332.563L225.975,332.563C223.712,334.732 221.45,336.899 219.351,339.216C218.05,340.652 216.667,342.003 215.283,343.355L215.282,343.355C213.531,345.066 211.777,346.779 210.184,348.668C208.98,350.095 207.572,351.442 206.165,352.788C205.589,353.339 205.013,353.89 204.451,354.446C202.843,356.039 201.239,357.649 199.644,359.251L198.672,360.226C198.11,360.789 197.532,361.339 196.953,361.89L196.952,361.89C195.713,363.069 194.47,364.251 193.37,365.576C192.588,366.439 191.74,367.24 190.893,368.04C189.551,369.309 188.209,370.577 187.124,372.092C185.569,372.52 184.822,373.746 184.075,374.972C183.968,375.147 183.861,375.323 183.752,375.496C182.473,376.073 181.444,377.089 180.851,378.36C179.735,378.882 178.913,379.749 178.091,380.617C177.504,381.236 176.918,381.855 176.223,382.35C176.054,382.471 176.02,382.783 175.987,383.094C175.971,383.239 175.956,383.383 175.927,383.508L175.901,383.541C174.938,383.504 174.386,384.142 173.842,384.795C173.395,385.36 172.816,385.806 172.155,386.093C171.495,386.38 170.773,386.5 170.055,386.442C168.279,386.375 166.499,386.386 164.72,386.398C164.037,386.403 163.353,386.407 162.671,386.407C130.424,386.397 98.177,386.397 65.93,386.407C62.817,386.413 59.717,386.018 56.705,385.232C56.051,385.062 55.423,384.798 54.795,384.534L54.795,384.533C53.664,384.057 52.534,383.582 51.254,383.662L50.132,383.536C49.246,382.578 48.259,381.719 47.187,380.974C44.182,379.029 41.544,376.567 39.396,373.702C39.29,373.569 39.191,373.425 39.092,373.28L39.091,373.279C38.722,372.742 38.344,372.19 37.573,372.109C37.252,370.967 36.468,370.172 35.681,369.374C35.14,368.825 34.599,368.276 34.206,367.612C34.11,367.451 34.017,367.286 33.924,367.12C33.417,366.221 32.895,365.296 31.885,364.805C31.078,363.02 30.129,361.351 28.292,360.409C28.241,358.934 27.268,358.202 26.07,357.649ZM398.363,191.747C398.063,191.738 397.764,191.718 397.465,191.698C397.045,191.67 396.625,191.642 396.205,191.643C393.917,191.648 391.629,191.658 389.342,191.669C385.865,191.686 382.388,191.702 378.912,191.698C372.169,191.689 365.425,191.673 358.681,191.657L358.679,191.657C348.611,191.633 338.543,191.609 328.475,191.61C321.484,191.61 314.494,191.644 307.503,191.678C302.128,191.704 296.753,191.73 291.378,191.741C286.969,191.75 282.561,191.736 278.153,191.722L278.146,191.722C274.333,191.709 270.52,191.697 266.708,191.7C242.33,191.717 217.952,191.739 193.573,191.768C188.432,191.768 183.291,191.717 178.15,191.667L178.147,191.667C171.234,191.599 164.322,191.532 157.407,191.587C148.201,191.659 138.994,191.64 129.787,191.621C124.889,191.611 119.99,191.602 115.092,191.605C109.743,191.61 104.394,191.627 99.046,191.645L99.021,191.645C94.361,191.66 89.701,191.676 85.042,191.682C75.254,191.696 65.466,191.696 55.678,191.682L55.678,191.645L33.879,191.645C30.937,191.649 27.995,191.662 25.053,191.701C23.321,191.724 22.379,192.582 22.384,194.374C22.401,200.557 22.416,206.74 22.427,212.924C22.394,213.832 22.676,214.725 23.226,215.449C24.993,217.746 26.994,219.855 29.196,221.74C32.993,224.91 36.579,228.328 40.029,231.819C40.883,232.683 41.728,233.559 42.573,234.436C44.623,236.563 46.675,238.692 48.874,240.664C50.678,242.403 52.713,243.886 54.922,245.07C60.165,247.604 65.932,248.867 71.754,248.757C75.472,248.706 79.19,248.73 82.909,248.754C84.407,248.764 85.906,248.773 87.404,248.778C93.511,248.797 99.618,248.792 105.725,248.787C118.64,248.776 131.555,248.766 144.472,248.982C149.859,249.072 155.248,249.016 160.637,248.959L160.639,248.959C165.63,248.906 170.621,248.854 175.61,248.918C184.484,249.033 193.347,249.083 202.219,248.97C209.164,248.882 216.111,248.923 223.059,248.963L223.061,248.963C226.133,248.981 229.204,248.999 232.275,249.006C235.114,249.012 237.952,248.962 240.79,248.912L240.792,248.912C242.813,248.876 244.834,248.84 246.854,248.825C266.37,248.693 285.886,248.688 305.404,248.81C309.261,248.83 313.118,248.815 316.975,248.801L316.976,248.801C324.879,248.77 332.785,248.74 340.695,249.012C345.746,249.185 350.887,248.953 355.974,248.616C363.303,248.197 370.255,245.225 375.623,240.216C379.374,236.792 382.924,233.173 386.461,229.539C387.393,228.582 388.343,227.644 389.292,226.705L389.293,226.704C391.5,224.523 393.707,222.34 395.691,219.938C396.935,218.556 398.264,217.255 399.672,216.042C400.092,215.659 400.422,215.189 400.64,214.664C400.857,214.139 400.956,213.572 400.93,213.004C400.895,206.821 400.875,200.636 400.925,194.454C400.939,192.62 400.123,191.801 398.367,191.744L398.363,191.747ZM399.802,328.744C402.638,328.747 403.003,329.152 403.024,332.013L403.018,332.015C403.028,333.583 403.008,335.153 402.989,336.724C402.944,340.262 402.9,343.8 403.195,347.31C403.551,351.531 402.229,354.571 398.994,357.111C398.919,357.169 398.844,357.228 398.767,357.288C397.749,358.081 396.633,358.951 396.396,360.418C396.222,360.372 396.038,360.375 395.865,360.426C395.692,360.477 395.536,360.574 395.414,360.707C393.959,362.689 392.186,364.373 390.414,366.056C388.749,367.638 387.084,369.219 385.686,371.046C385.447,371.358 385.059,371.532 384.674,371.706C383.974,372.021 383.283,372.332 383.513,373.457C383.479,373.466 383.442,373.472 383.405,373.479C383.318,373.494 383.23,373.509 383.173,373.559C382.914,373.786 382.656,374.012 382.397,374.239C379.142,377.092 375.888,379.945 372.219,382.284C372.06,382.425 371.942,382.608 371.879,382.811C371.817,383.015 371.811,383.232 371.862,383.438L370.536,383.601C369.583,383.467 368.612,383.583 367.717,383.937C364.308,385.27 360.666,385.908 357.006,385.813C331.036,385.824 305.065,385.834 279.092,385.843C278.433,385.843 277.774,385.843 277.115,385.842C274.775,385.841 272.435,385.839 270.096,385.863C270.025,385.864 269.953,385.864 269.881,385.863C269.059,385.861 268.176,385.859 268.198,387.142C267.577,387.36 267.028,387.743 266.61,388.25C265.196,389.671 263.778,391.09 262.36,392.508C259.127,395.742 255.895,398.976 252.7,402.246C252.527,402.423 252.326,402.588 252.123,402.754C251.506,403.258 250.867,403.782 250.901,404.752L250.857,404.783C250.639,404.762 250.419,404.792 250.214,404.87C250.01,404.949 249.827,405.075 249.679,405.237C249.532,405.4 249.425,405.594 249.366,405.805C249.308,406.017 249.3,406.239 249.342,406.454L249.32,406.472C247.865,406.655 247.057,407.668 246.261,408.667C245.922,409.092 245.585,409.514 245.201,409.869C242.134,412.707 239.175,415.661 236.216,418.616C234.998,419.832 233.781,421.048 232.555,422.256C231.236,423.555 229.912,424.85 228.587,426.145C225.907,428.766 223.226,431.388 220.586,434.049C216.223,438.449 211.861,442.855 207.663,447.41C207.14,447.977 206.55,448.484 205.959,448.992C204.744,450.037 203.527,451.083 202.896,452.65C202.842,452.629 202.782,452.63 202.728,452.652C202.674,452.674 202.631,452.717 202.608,452.77C201.112,453.613 199.863,454.831 198.983,456.305C195.49,456.276 191.997,456.291 188.504,456.305C180.781,456.338 173.058,456.371 165.333,455.93C160.561,455.658 155.773,455.743 150.986,455.829C149.057,455.863 147.127,455.898 145.2,455.909C140.552,455.936 135.885,455.916 131.227,455.897L130.455,455.894C118.382,455.844 106.308,455.827 94.234,455.809C86.381,455.798 78.527,455.787 70.673,455.767C68.634,455.762 66.589,455.666 64.56,455.474C61.169,455.157 57.891,454.088 54.965,452.345C50.353,449.674 46.239,446.225 42.806,442.149C42.782,442.12 42.758,442.091 42.735,442.062C42.341,441.575 41.946,441.087 41.192,441.232L41.105,441.188C40.801,440.383 40.331,439.651 39.725,439.04C39.12,438.429 38.392,437.952 37.59,437.642C37.546,437.504 37.502,437.367 37.459,437.229C37.383,436.428 36.899,436.136 36.148,436.179L36.108,436.134C36.18,435.608 35.928,435.395 35.423,435.435L35.405,435.419C35.438,434.915 35.205,434.685 34.7,434.735L34.664,434.7C34.692,434.22 34.469,434.008 33.988,434.076L33.964,433.972L33.858,433.965C33.899,433.539 33.71,433.339 33.278,433.388L33.263,433.274L33.153,433.246C32.9,432.481 32.49,431.778 31.949,431.182C31.408,430.585 30.748,430.109 30.012,429.783L29.579,429.651C28.874,428.099 27.612,426.868 26.044,426.201L26.054,426.095L25.96,426.046C26.049,425.439 25.677,425.161 25.303,424.881C25.157,424.771 25.01,424.661 24.891,424.531C24.767,424.396 24.641,424.263 24.516,424.129C23.491,423.038 22.461,421.94 22.457,420.281C22.455,419.552 22.452,418.823 22.45,418.094C22.432,412.698 22.413,407.303 22.457,401.908C22.422,401.561 22.463,401.21 22.578,400.88C22.693,400.55 22.878,400.249 23.12,399.998C23.363,399.747 23.658,399.552 23.984,399.426C24.31,399.3 24.659,399.247 25.008,399.271C25.649,399.25 26.291,399.208 26.932,399.167C27.847,399.108 28.762,399.048 29.678,399.048C73.886,399.063 118.093,399.053 162.301,399.017C163.263,399.016 164.225,399.028 165.188,399.041C168.129,399.079 171.072,399.116 174.004,398.782C174.089,398.772 174.176,398.763 174.264,398.755C175.129,398.67 176.043,398.581 175.952,397.255L175.959,397.236C176.459,397.071 176.914,396.79 177.286,396.417C177.659,396.044 177.938,395.589 178.102,395.088L178.122,395.079C178.297,395.125 178.481,395.12 178.653,395.064C178.824,395.009 178.977,394.905 179.092,394.766C181.604,391.916 184.29,389.223 187.132,386.701C187.275,386.591 187.381,386.44 187.437,386.269C187.493,386.097 187.497,385.913 187.447,385.74L187.491,385.642C188.43,385.246 189.184,384.507 189.596,383.575C190.479,383.278 191.031,382.61 191.582,381.942C191.852,381.615 192.122,381.288 192.431,381.006C194.183,379.403 195.863,377.726 197.544,376.047C197.964,375.628 198.384,375.208 198.805,374.789C198.907,374.689 198.94,374.526 198.973,374.363C198.988,374.285 199.004,374.207 199.028,374.136C199.956,373.7 200.698,372.946 201.12,372.011L201.171,371.987C202.695,371.176 203.951,369.942 204.788,368.433C205.267,368.425 205.52,368.196 205.504,367.703C206.26,367.683 206.455,367.226 206.392,366.566L206.517,366.547L206.498,366.421C206.969,366.515 207.238,366.233 207.504,365.954C207.563,365.892 207.623,365.829 207.684,365.771C208.59,364.917 209.469,364.039 210.348,363.16C211.465,362.042 212.584,360.924 213.758,359.855C217.669,356.296 221.363,352.485 225.004,348.643C228.766,344.675 232.638,340.815 236.508,336.955C238.758,334.712 241.007,332.47 243.234,330.206C243.697,329.696 244.262,329.29 244.893,329.013C245.523,328.737 246.205,328.596 246.894,328.601C266.104,328.58 285.314,328.576 304.524,328.591C312.453,328.596 320.382,328.622 328.31,328.648C334.79,328.669 341.269,328.69 347.748,328.701C365.1,328.704 382.451,328.718 399.802,328.744Z" style="fill:url(#_Linear1);"/>
        </g>
        <g id="Union2" transform="matrix(4.34184,0,0,58.2796,-41.0739,338.457)">
            <rect x="9.46" y="-5.807" width="89.238" height="7.605" style="fill:none;"/>
        </g>
    </g>
    <defs>
        <linearGradient id="_Linear1" x1="0" y1="0" x2="1" y2="0" gradientUnits="userSpaceOnUse" gradientTransform="matrix(-329.707,393.916,-393.916,-329.707,389.443,16)"><stop offset="0" style="stop-color:rgb(226,126,95);stop-opacity:1"/><stop offset="0.5" style="stop-color:rgb(255,124,251);stop-opacity:1"/><stop offset="1" style="stop-color:rgb(89,225,221);stop-opacity:1"/></linearGradient>
    </defs>
</svg>
