<?xml version="1.0" encoding="UTF-8" standalone="no"?>
<!DOCTYPE svg PUBLIC "-//W3C//DTD SVG 1.1//EN" "http://www.w3.org/Graphics/SVG/1.1/DTD/svg11.dtd">
<svg width="100%" height="100%" viewBox="0 0 2674 1044" version="1.1" xmlns="http://www.w3.org/2000/svg" xmlns:xlink="http://www.w3.org/1999/xlink" xml:space="preserve" xmlns:serif="http://www.serif.com/" style="fill-rule:evenodd;clip-rule:evenodd;stroke-linejoin:round;stroke-miterlimit:2;">
    <g id="Artboard1" transform="matrix(0.932662,0,0,0.642295,-576.254,-289.88)">
        <rect x="617.859" y="451.319" width="2866.95" height="1624.2" style="fill:none;"/>
        <g transform="matrix(3.1982,0,0,9.35838,-5992.39,-9184.13)">
            <path d="M2103.46,1184.91L2913.42,1184.91L2913.42,1065.96L2103.46,1065.96L2103.46,1184.91ZM2919.08,1190.57L2097.8,1190.57L2097.8,1060.3L2919.08,1060.3L2919.08,1190.57Z" style="fill:white;fill-rule:nonzero;"/>
        </g>
        <g transform="matrix(4.4675,0,0,6.48715,-9194.56,-6145.62)">
            <path d="M2508.44,1034.81L2485.55,1063.13L2531.33,1063.13L2508.44,1034.81Z" style="fill:white;fill-rule:nonzero;"/>
        </g>
        <g transform="matrix(1.17699,0,0,1.56351,721.869,-819.316)">
            <path d="M214.127,1444.61L214.127,1461.35C214.127,1509.5 220.368,1529.91 239.504,1545.08C259.056,1560.78 292.753,1565.49 378.867,1565.49C461.652,1565.49 496.597,1562.88 513.237,1555.03C541.942,1541.42 553.59,1511.59 553.59,1450.89C553.59,1421.52 551.015,1401.3 544.77,1386.43C540.664,1376.66 534.972,1369.2 527.381,1362.97C509.493,1348.84 491.605,1346.22 400.083,1342.56C341.426,1340.47 318.545,1338.9 311.057,1336.28C302.321,1333.66 298.577,1326.86 298.577,1313.78C298.577,1288.14 304.401,1286.04 375.955,1286.04C435.86,1286.04 446.26,1287.09 453.332,1292.32C459.572,1297.03 460.82,1301.74 461.652,1321.11L543.19,1321.11C543.606,1314.3 543.606,1306.98 543.606,1304.88C543.606,1263.54 536.95,1241.56 520.309,1227.43C500.757,1210.68 471.636,1205.98 390.931,1205.98C324.37,1205.98 286.097,1208.07 269.873,1212.26C231.6,1222.72 216.624,1252.55 216.624,1319.01C216.624,1395.94 235.76,1417.92 304.401,1420.54L326.866,1421.58L371.794,1424.2L438.356,1427.34C465.396,1427.86 471.636,1433.09 471.636,1454.03C471.636,1484.9 471.636,1484.9 380.947,1484.9C321.457,1484.9 312.305,1483.86 304.401,1477.58C297.745,1472.34 296.081,1465.54 296.081,1444.61L214.127,1444.61Z" style="fill:white;fill-rule:nonzero;"/>
            <path d="M567.404,1211.21L567.404,1300.17L690.958,1300.17L690.958,1560.26L779.568,1560.26L779.568,1300.17L903.122,1300.17L903.122,1211.21L567.404,1211.21Z" style="fill:white;fill-rule:nonzero;"/>
            <g transform="matrix(3.82736,0,0,4.14909,-3670.9,-3860.79)">
                <path d="M1276.98,1306.87L1265.98,1288.22L1234.71,1288.22L1244.2,1272.12L1256.96,1272.36L1244.43,1251.74L1212.01,1306.87L1187.69,1306.87L1234.94,1228.35C1237.49,1224.18 1240.62,1221.51 1245.25,1221.51C1249.76,1221.51 1252.9,1224.18 1255.44,1228.35L1302.69,1306.87L1276.98,1306.87Z" style="fill:white;fill-rule:nonzero;"/>
            </g>
            <g transform="matrix(4.86391,0,0,5.62875,-287.279,-5860.29)">
                <path d="M392.869,1318.97L377.558,1302.34L357.665,1302.32L357.529,1289.95L382.256,1289.95C388.921,1289.95 389.238,1286.01 389.238,1279.26C389.238,1272.51 388.025,1272.13 381.533,1272.13L353.132,1272.14L353.136,1318.8L335.961,1318.97L335.807,1256.01L382.379,1255.76C397.287,1255.76 406.021,1264.43 406.021,1278.9C406.021,1289.33 401.111,1296.61 393.129,1299.77L412.249,1318.97L392.869,1318.97Z" style="fill:white;fill-rule:nonzero;"/>
            </g>
            <path d="M1703.11,1211.21L1703.11,1300.17L1826.67,1300.17L1826.67,1560.26L1915.28,1560.26L1915.28,1300.17L2038.83,1300.17L2038.83,1211.21L1703.11,1211.21Z" style="fill:white;fill-rule:nonzero;"/>
        </g>
    </g>
</svg>
