<?xml version="1.0" encoding="UTF-8" standalone="no"?>
<!DOCTYPE svg PUBLIC "-//W3C//DTD SVG 1.1//EN" "http://www.w3.org/Graphics/SVG/1.1/DTD/svg11.dtd">
<svg width="100%" height="100%" viewBox="0 0 100 100" version="1.1" xmlns="http://www.w3.org/2000/svg" xmlns:xlink="http://www.w3.org/1999/xlink" xml:space="preserve" xmlns:serif="http://www.serif.com/" style="fill-rule:evenodd;clip-rule:evenodd;stroke-linejoin:round;stroke-miterlimit:2;">
    <g transform="matrix(4.16667,0,0,4.16667,0,0)">
        <g transform="matrix(0.70748,-0.706733,0.706733,0.70748,-4.96442,11.9879)">
            <path d="M6.003,13.248L5.988,13.279L6.003,13.248L6.002,17.991L10.769,18.01L10.76,19.779L4.226,19.783L4.223,13.249L6.003,13.248M10.69,18.018L6.002,17.991L6.025,13.312L6.002,17.991L5.989,17.991L6.002,17.991L6.002,18.028L6.002,17.991L10.69,18.018Z" style="fill:rgb(50,50,50);"/>
            <g transform="matrix(1,0.00044018,0.00044018,-1,0.00986869,23.9802)">
                <path d="M6.003,13.248L5.988,13.279L6.003,13.248L6.002,17.991L10.769,18.01L10.76,19.779L4.226,19.783L4.223,13.249L6.003,13.248M10.69,18.018L6.002,17.991L6.025,13.312L6.002,17.991L5.989,17.991L6.002,17.991L6.002,18.028L6.002,17.991L10.69,18.018Z" style="fill:rgb(50,50,50);"/>
            </g>
            <g transform="matrix(-1,0.00044018,-0.00044018,-1,23.9905,24.0292)">
                <path d="M6.003,13.248L5.988,13.279L6.003,13.248L6.002,17.991L10.769,18.01L10.76,19.779L4.226,19.783L4.223,13.249L6.003,13.248M10.69,18.018L6.002,17.991L6.025,13.312L6.002,17.991L5.989,17.991L6.002,17.991L6.002,18.028L6.002,17.991L10.69,18.018Z" style="fill:rgb(50,50,50);"/>
            </g>
            <g transform="matrix(-1,0,0,1,23.9985,-0.0183403)">
                <path d="M6.003,13.248L5.988,13.279L6.003,13.248L6.002,17.991L10.769,18.01L10.76,19.779L4.226,19.783L4.223,13.249L6.003,13.248M10.69,18.018L6.002,17.991L6.025,13.312L6.002,17.991L5.989,17.991L6.002,17.991L6.002,18.028L6.002,17.991L10.69,18.018Z" style="fill:rgb(50,50,50);"/>
            </g>
            <rect x="10.978" y="10.951" width="1.995" height="1.996" style="fill:rgb(50,50,50);"/>
        </g>
    </g>
</svg>
