<?xml version="1.0" encoding="UTF-8" standalone="no"?>
<!DOCTYPE svg PUBLIC "-//W3C//DTD SVG 1.1//EN" "http://www.w3.org/Graphics/SVG/1.1/DTD/svg11.dtd">
<svg width="100%" height="100%" viewBox="0 0 100 100" version="1.1" xmlns="http://www.w3.org/2000/svg" xmlns:xlink="http://www.w3.org/1999/xlink" xml:space="preserve" xmlns:serif="http://www.serif.com/" style="fill-rule:evenodd;clip-rule:evenodd;stroke-linejoin:round;stroke-miterlimit:2;">
    <g transform="matrix(4.16667,0,0,4.16667,0,0)">
        <g>
            <path d="M5.54,8.46L2,12L5.54,15.54L6.304,14.782L3.361,11.977L6.355,9.224L5.54,8.46ZM12.023,20.878L9.144,17.906L8.46,18.46L12,22L15.618,18.465L15.131,17.813L12.023,20.878ZM18.46,8.46L17.734,9.245L20.524,12.031L17.757,14.774L18.46,15.54L22,12L18.46,8.46ZM8.499,5.5L9.14,6.18L12.021,3.248C12.966,4.117 14.265,5.445 15.095,6.236L15.649,5.534L12,2L8.499,5.5Z" style="fill:rgb(50,50,50);fill-rule:nonzero;"/>
            <g transform="matrix(0.521795,0,0,0.521795,5.84642,5.74494)">
                <path d="M12,15C13.657,15 15,13.657 15,12C15,10.343 13.657,9 12,9C10.343,9 9,10.343 9,12C9,13.657 10.343,15 12,15Z" style="fill:rgb(50,50,50);fill-rule:nonzero;"/>
            </g>
        </g>
    </g>
</svg>
