<?xml version="1.0" encoding="UTF-8" standalone="no"?>
<!DOCTYPE svg PUBLIC "-//W3C//DTD SVG 1.1//EN" "http://www.w3.org/Graphics/SVG/1.1/DTD/svg11.dtd">
<svg width="100%" height="100%" viewBox="0 0 2464 641" version="1.1" xmlns="http://www.w3.org/2000/svg" xmlns:xlink="http://www.w3.org/1999/xlink" xml:space="preserve" xmlns:serif="http://www.serif.com/" style="fill-rule:evenodd;clip-rule:evenodd;stroke-linejoin:round;stroke-miterlimit:2;">
    <g transform="matrix(1.37463,0,0,0.51455,-674.011,-179.512)">
        <path d="M757.547,348.871L2265.93,348.871C2274.86,348.871 2282.1,356.121 2282.1,365.051L2282.1,1325.75C2282.1,1330.21 2280.29,1334.26 2277.37,1337.18L2026.31,1588.23C2023.15,1591.39 2019.01,1592.97 2014.88,1592.97L506.492,1592.97C497.563,1592.97 490.32,1585.73 490.32,1576.8L490.32,616.102C490.32,611.641 492.133,607.59 495.059,604.672L746.113,353.609C749.27,350.461 753.406,348.879 757.547,348.879L757.547,348.871ZM783.777,428.371L889,428.371L936.156,381.219L2249.76,381.219L2249.76,899.371L2202.6,946.531L2202.6,1299.52L1988.65,1513.47L1883.42,1513.47L1836.27,1560.63L522.664,1560.63L522.664,1042.47L569.82,995.32L569.82,642.328L783.777,428.371" style="fill:rgb(13,15,14);"/>
    </g>
</svg>
