<?xml version="1.0" encoding="UTF-8" standalone="no"?>
<!DOCTYPE svg PUBLIC "-//W3C//DTD SVG 1.1//EN" "http://www.w3.org/Graphics/SVG/1.1/DTD/svg11.dtd">
<svg width="100%" height="100%" viewBox="0 0 479 814" version="1.1" xmlns="http://www.w3.org/2000/svg" xmlns:xlink="http://www.w3.org/1999/xlink" xml:space="preserve" xmlns:serif="http://www.serif.com/" style="fill-rule:evenodd;clip-rule:evenodd;stroke-linejoin:round;stroke-miterlimit:2;">
    <g transform="matrix(1,0,0,1,-2154.91,-4647.93)">
        <g id="Playpunkt" transform="matrix(0.679969,0,0,1.22444,767.666,-1134.47)">
            <rect x="2040.15" y="4722.48" width="703.249" height="664.056" style="fill:none;"/>
            <g transform="matrix(6.12773,0,0,3.40291,-4238.83,3334.3)">
                <path d="M1040.84,409.69C1048.6,409.69 1054.89,415.979 1054.89,423.738C1054.89,431.497 1048.6,437.786 1040.84,437.786C1033.08,437.786 1026.8,431.497 1026.8,423.738C1026.8,415.979 1033.08,409.69 1040.84,409.69Z" style="fill:rgb(3,4,4);fill-rule:nonzero;"/>
            </g>
            <g transform="matrix(6.12773,0,0,3.40291,-4238.83,3334.3)">
                <path d="M1040.84,436.915C1048.6,436.915 1054.89,443.204 1054.89,450.962C1054.89,458.721 1048.6,465.01 1040.84,465.01C1033.08,465.01 1026.8,458.721 1026.8,450.962C1026.8,443.204 1033.08,436.915 1040.84,436.915Z" style="fill:rgb(3,4,4);fill-rule:nonzero;"/>
            </g>
            <g transform="matrix(6.12773,0,0,3.40291,-4238.83,3334.3)">
                <path d="M1067.94,436.915C1075.7,436.915 1081.98,443.204 1081.98,450.962C1081.98,458.721 1075.7,465.01 1067.94,465.01C1060.18,465.01 1053.89,458.721 1053.89,450.962C1053.89,443.204 1060.18,436.915 1067.94,436.915Z" style="fill:rgb(3,4,4);fill-rule:nonzero;"/>
            </g>
            <g transform="matrix(6.12773,0,0,3.40291,-4238.83,3334.3)">
                <path d="M1040.84,464.139C1048.6,464.139 1054.89,470.428 1054.89,478.187C1054.89,485.945 1048.6,492.234 1040.84,492.234C1033.08,492.234 1026.8,485.945 1026.8,478.187C1026.8,470.428 1033.08,464.139 1040.84,464.139Z" style="fill:rgb(3,4,4);fill-rule:nonzero;"/>
            </g>
            <g transform="matrix(6.12773,0,0,3.40291,-4238.83,3334.3)">
                <path d="M1067.94,464.139C1075.7,464.139 1081.98,470.428 1081.98,478.187C1081.98,485.945 1075.7,492.234 1067.94,492.234C1060.18,492.234 1053.89,485.945 1053.89,478.187C1053.89,470.428 1060.18,464.139 1067.94,464.139Z" style="fill:rgb(3,4,4);fill-rule:nonzero;"/>
            </g>
            <g transform="matrix(6.12773,0,0,3.40291,-4238.83,3334.3)">
                <path d="M1095.05,464.139C1102.81,464.139 1109.1,470.428 1109.1,478.187C1109.1,485.945 1102.81,492.234 1095.05,492.234C1087.29,492.234 1081,485.945 1081,478.187C1081,470.428 1087.29,464.139 1095.05,464.139Z" style="fill:rgb(3,4,4);fill-rule:nonzero;"/>
            </g>
            <g transform="matrix(6.12773,0,0,3.40291,-4238.83,3334.3)">
                <path d="M1040.84,491.342C1048.6,491.342 1054.89,497.631 1054.89,505.389C1054.89,513.148 1048.6,519.437 1040.84,519.437C1033.08,519.437 1026.8,513.148 1026.8,505.389C1026.8,497.631 1033.08,491.342 1040.84,491.342Z" style="fill:rgb(3,4,4);fill-rule:nonzero;"/>
            </g>
            <g transform="matrix(6.12773,0,0,3.40291,-4238.83,3334.3)">
                <path d="M1067.94,491.342C1075.7,491.342 1081.98,497.631 1081.98,505.389C1081.98,513.148 1075.7,519.437 1067.94,519.437C1060.18,519.437 1053.89,513.148 1053.89,505.389C1053.89,497.631 1060.18,491.342 1067.94,491.342Z" style="fill:rgb(3,4,4);fill-rule:nonzero;"/>
            </g>
            <g transform="matrix(6.12773,0,0,3.40291,-4238.83,3334.3)">
                <path d="M1095.05,491.342C1102.81,491.342 1109.1,497.631 1109.1,505.389C1109.1,513.148 1102.81,519.437 1095.05,519.437C1087.29,519.437 1081,513.148 1081,505.389C1081,497.631 1087.29,491.342 1095.05,491.342Z" style="fill:rgb(3,4,4);fill-rule:nonzero;"/>
            </g>
            <g transform="matrix(6.12773,0,0,3.40291,-4238.83,3334.3)">
                <path d="M1122.15,491.342C1129.9,491.342 1136.19,497.631 1136.19,505.389C1136.19,513.148 1129.9,519.437 1122.15,519.437C1114.39,519.437 1108.1,513.148 1108.1,505.389C1108.1,497.631 1114.39,491.342 1122.15,491.342Z" style="fill:rgb(3,4,4);fill-rule:nonzero;"/>
            </g>
            <g transform="matrix(6.12773,0,0,3.40291,-4238.83,3334.3)">
                <path d="M1040.84,518.566C1048.6,518.566 1054.89,524.855 1054.89,532.614C1054.89,540.372 1048.6,546.662 1040.84,546.662C1033.08,546.662 1026.8,540.372 1026.8,532.614C1026.8,524.855 1033.08,518.566 1040.84,518.566Z" style="fill:rgb(3,4,4);fill-rule:nonzero;"/>
            </g>
            <g transform="matrix(6.12773,0,0,3.40291,-4238.83,3334.3)">
                <path d="M1067.94,518.566C1075.7,518.566 1081.98,524.855 1081.98,532.614C1081.98,540.372 1075.7,546.662 1067.94,546.662C1060.18,546.662 1053.89,540.372 1053.89,532.614C1053.89,524.855 1060.18,518.566 1067.94,518.566Z" style="fill:rgb(3,4,4);fill-rule:nonzero;"/>
            </g>
            <g transform="matrix(6.12773,0,0,3.40291,-4238.83,3334.3)">
                <path d="M1095.05,518.566C1102.81,518.566 1109.1,524.855 1109.1,532.614C1109.1,540.372 1102.81,546.662 1095.05,546.662C1087.29,546.662 1081,540.372 1081,532.614C1081,524.855 1087.29,518.566 1095.05,518.566Z" style="fill:rgb(3,4,4);fill-rule:nonzero;"/>
            </g>
            <g transform="matrix(6.12773,0,0,3.40291,-4238.83,3334.3)">
                <path d="M1040.84,545.791C1048.6,545.791 1054.89,552.08 1054.89,559.838C1054.89,567.597 1048.6,573.886 1040.84,573.886C1033.08,573.886 1026.8,567.597 1026.8,559.838C1026.8,552.08 1033.08,545.791 1040.84,545.791Z" style="fill:rgb(3,4,4);fill-rule:nonzero;"/>
            </g>
            <g transform="matrix(6.12773,0,0,3.40291,-4238.83,3334.3)">
                <path d="M1067.94,545.791C1075.7,545.791 1081.98,552.08 1081.98,559.838C1081.98,567.597 1075.7,573.886 1067.94,573.886C1060.18,573.886 1053.89,567.597 1053.89,559.838C1053.89,552.08 1060.18,545.791 1067.94,545.791Z" style="fill:rgb(3,4,4);fill-rule:nonzero;"/>
            </g>
            <g transform="matrix(6.12773,0,0,3.40291,-4238.83,3334.3)">
                <path d="M1040.84,573.015C1048.6,573.015 1054.89,579.304 1054.89,587.063C1054.89,594.821 1048.6,601.11 1040.84,601.11C1033.08,601.11 1026.8,594.821 1026.8,587.063C1026.8,579.304 1033.08,573.015 1040.84,573.015Z" style="fill:rgb(3,4,4);fill-rule:nonzero;"/>
            </g>
        </g>
    </g>
</svg>
