<?xml version="1.0" encoding="utf-8"?>
<!-- Generator: Adobe Illustrator 24.0.1, SVG Export Plug-In . SVG Version: 6.00 Build 0)  -->
<svg version="1.1" id="Layer_1" xmlns="http://www.w3.org/2000/svg" xmlns:xlink="http://www.w3.org/1999/xlink" x="0px" y="0px"
	 viewBox="0 0 1000 1000" style="enable-background:new 0 0 1000 1000;" xml:space="preserve">
<style type="text/css">
	.st0{fill:none;}
	.st1{fill:#FFFFFF;}
</style>
<rect x="2079" y="-268" width="2983" height="1347"/>
<g>
	<path class="st0" d="M504.03,912.78c-1.88,0-3.4,0.66-4.54,1.99c-1.15,1.33-1.72,3.06-1.72,5.21s0.57,3.86,1.72,5.15
		c1.14,1.29,2.66,1.94,4.54,1.94c1.92,0,3.44-0.67,4.57-2.02c1.13-1.35,1.69-3.04,1.69-5.07c0-2.25-0.57-4.02-1.72-5.29
		C507.43,913.42,505.92,912.78,504.03,912.78z"/>
	<path class="st0" d="M553.43,912.78c-1.92,0-3.49,0.66-4.71,1.99c-1.22,1.33-1.83,3.06-1.83,5.21c0,2.1,0.62,3.8,1.86,5.09
		c1.24,1.29,2.8,1.94,4.68,1.94c1.92,0,3.52-0.67,4.79-2.02c1.27-1.35,1.91-3.05,1.91-5.12c0-2.1-0.64-3.81-1.91-5.12
		C556.95,913.43,555.35,912.78,553.43,912.78z"/>
	<path class="st0" d="M582.9,896.44c-2.47,0-4.47,0.79-5.98,2.35c-1.51,1.57-2.27,3.61-2.27,6.12c0,2.47,0.76,4.5,2.27,6.09
		c1.51,1.59,3.54,2.38,6.09,2.38c2.58,0,4.62-0.79,6.12-2.38c1.5-1.59,2.24-3.64,2.24-6.15s-0.76-4.54-2.27-6.09
		C587.59,897.21,585.52,896.44,582.9,896.44z M584.56,910.78l-1.72-3.99h-0.94v3.99h-3.6v-11.96h5.43c1.33,0,2.36,0.36,3.1,1.08
		c0.74,0.72,1.11,1.67,1.11,2.85c0,1.74-0.63,2.86-1.88,3.38l2.21,4.65H584.56z"/>
	<path class="st0" d="M583.17,901.81h-1.27v2.16h1.27c0.7,0,1.05-0.37,1.05-1.11C584.23,902.16,583.88,901.81,583.17,901.81z"/>
	<path class="st1" d="M295.74,848.47h10.78V854c-0.83,0.83-2.41,1.68-4.72,2.54s-5.17,1.29-8.56,1.29c-5.05,0-9.24-1.71-12.57-5.13
		c-3.33-3.42-4.99-7.95-4.99-13.59c0-5.17,1.57-9.43,4.72-12.79c3.15-3.36,7.43-5.04,12.83-5.04c3.62,0,6.77,0.77,9.45,2.32
		c2.67,1.55,4.55,3.03,5.61,4.46l9.63-9.98c-5.82-7.25-14.29-10.87-25.4-10.87c-9.57,0-17.39,3.09-23.48,9.27
		c-6.09,6.18-9.14,13.81-9.14,22.9c0,9.75,3.1,17.6,9.31,23.57c6.21,5.97,13.86,8.96,22.95,8.96c6.48,0,11.84-0.85,16.09-2.54
		c4.25-1.69,8.39-4.11,12.43-7.26v-26.38h-24.95V848.47z"/>
	<polygon class="st1" points="345.29,808.37 330.05,808.37 330.05,870.75 364.01,870.75 364.01,857.12 345.29,857.12 	"/>
	<rect x="370.87" y="808.37" class="st1" width="15.24" height="62.39"/>
	<polygon class="st1" points="422.03,870.75 422.03,822 435.49,822 435.49,808.37 393.33,808.37 393.33,822 406.79,822 
		406.79,870.75 	"/>
	<path class="st1" d="M473.1,821.47c4.57,0,9.03,1.46,13.37,4.37l4.28-13.37c-5.17-3.5-11.23-5.26-18.18-5.26
		c-9.63,0-17.53,3.08-23.71,9.22c-6.18,6.15-9.27,13.83-9.27,23.04c0,9.33,3.02,17.07,9.05,23.22c6.03,6.15,14.01,9.22,23.93,9.22
		c7.13,0,13.28-1.75,18.45-5.26l-4.28-13.37c-4.34,2.91-8.88,4.37-13.64,4.37c-5.47,0-9.77-1.75-12.92-5.26
		c-3.15-3.5-4.72-7.81-4.72-12.92c0-5.11,1.57-9.39,4.72-12.83C463.32,823.19,467.63,821.47,473.1,821.47z"/>
	<polygon class="st1" points="551.61,870.75 551.61,808.37 536.37,808.37 536.37,832.61 514.09,832.61 514.09,808.37 498.85,808.37 
		498.85,870.75 514.09,870.75 514.09,846.33 536.37,846.33 536.37,870.75 	"/>
	<polygon class="st1" points="618.28,847.05 595.46,808.37 579.95,808.37 579.95,870.75 594.93,870.75 594.93,832.52 618.1,870.75 
		633.25,870.75 633.25,808.37 618.28,808.37 	"/>
	<polygon class="st1" points="644.12,870.75 659.36,870.75 659.36,846.96 674.87,846.96 674.87,833.41 659.36,833.41 659.36,822 
		677.1,822 677.1,808.37 644.12,808.37 	"/>
	<polygon class="st1" points="682.35,822 695.81,822 695.81,870.75 711.05,870.75 711.05,822 724.51,822 724.51,808.37 
		682.35,808.37 	"/>
	<path class="st1" d="M431.12,917.82c-1.31-0.59-2.62-1.08-3.93-1.47c-1.31-0.39-2.43-0.79-3.35-1.22
		c-0.92-0.42-1.38-0.97-1.38-1.63c0-0.96,0.7-1.44,2.1-1.44c1.7,0,3.3,0.76,4.82,2.27l5.98-4.71c-2.44-3.32-5.91-4.98-10.41-4.98
		c-3.25,0-5.93,0.81-8.03,2.44c-2.1,1.63-3.16,3.8-3.16,6.54c0,1.66,0.33,3.11,1,4.35s1.49,2.19,2.46,2.85
		c0.98,0.67,2.04,1.25,3.19,1.75c1.14,0.5,2.21,0.89,3.18,1.16c0.98,0.28,1.8,0.61,2.46,1s1,0.84,1,1.36c0,1.07-0.87,1.61-2.6,1.61
		c-2.36,0-4.51-0.85-6.42-2.55l-5.21,5.04c1,1.33,2.47,2.49,4.43,3.49c1.96,1,4.21,1.5,6.76,1.5c3.4,0,6.22-0.87,8.47-2.6
		c2.25-1.74,3.38-4.06,3.38-6.98c0-1.96-0.46-3.59-1.38-4.9C433.55,919.36,432.43,918.41,431.12,917.82z"/>
	<path class="st1" d="M449.31,923.52v-10.69h4.93v-7.48h-4.93v-6.15h-9.25v6.15h-2.82v7.48h2.82v10.25c0,4.17,0.91,7.18,2.74,9.03
		c1.83,1.85,4.53,2.77,8.11,2.77c1.55,0,2.73-0.11,3.54-0.33v-7.92c-0.41,0.04-0.92,0.06-1.55,0.06
		C450.51,926.68,449.31,925.63,449.31,923.52z"/>
	<path class="st1" d="M475.62,922.69c0,1.22-0.35,2.21-1.05,2.99c-0.7,0.78-1.68,1.16-2.94,1.16c-1.15,0-2.07-0.36-2.77-1.08
		c-0.7-0.72-1.05-1.74-1.05-3.07v-17.34h-9.25v16.12c0,1.4,0.06,2.65,0.17,3.74c0.11,1.09,0.36,2.29,0.75,3.6s0.92,2.4,1.61,3.27
		c0.68,0.87,1.66,1.6,2.94,2.19c1.27,0.59,2.78,0.89,4.51,0.89c1.66,0,3.14-0.37,4.43-1.11c1.29-0.74,2.25-1.61,2.88-2.6v2.99h9.03
		v-29.08h-9.25V922.69z"/>
	<path class="st1" d="M510.01,907.57c-0.52-0.63-1.46-1.27-2.82-1.94c-1.37-0.67-3.01-1-4.93-1c-4.17,0-7.5,1.41-10,4.24
		c-2.49,2.82-3.74,6.51-3.74,11.05c0,4.47,1.33,8.12,3.99,10.97c2.66,2.84,6.07,4.26,10.25,4.26c1.88,0,3.52-0.33,4.9-1
		c1.38-0.66,2.37-1.33,2.96-1.99v2.27h8.64v-40.04h-9.25V907.57z M508.6,925.05c-1.13,1.35-2.65,2.02-4.57,2.02
		c-1.88,0-3.4-0.65-4.54-1.94c-1.15-1.29-1.72-3.01-1.72-5.15s0.57-3.88,1.72-5.21c1.14-1.33,2.66-1.99,4.54-1.99
		c1.88,0,3.4,0.64,4.54,1.91c1.14,1.27,1.72,3.04,1.72,5.29C510.29,922.01,509.73,923.7,508.6,925.05z"/>
	<path class="st1" d="M529.12,893.56c-1.48,0-2.71,0.47-3.68,1.41c-0.98,0.94-1.47,2.15-1.47,3.63c0,1.44,0.49,2.63,1.47,3.57
		s2.21,1.41,3.68,1.41c1.48,0,2.71-0.47,3.71-1.41c1-0.94,1.5-2.13,1.5-3.57c0-1.44-0.5-2.64-1.5-3.6
		C531.83,894.04,530.6,893.56,529.12,893.56z"/>
	<rect x="524.58" y="905.36" class="st1" width="9.25" height="29.08"/>
	<path class="st1" d="M553.43,904.64c-4.5,0-8.26,1.46-11.27,4.38c-3.01,2.92-4.51,6.57-4.51,10.97c0,4.39,1.48,8.02,4.43,10.88
		s6.74,4.29,11.35,4.29c4.58,0,8.38-1.45,11.41-4.35c3.03-2.9,4.54-6.54,4.54-10.94c0-4.43-1.5-8.08-4.49-10.94
		C561.91,906.07,558.09,904.64,553.43,904.64z M558.22,924.99c-1.27,1.35-2.87,2.02-4.79,2.02c-1.88,0-3.44-0.65-4.68-1.94
		c-1.24-1.29-1.86-2.99-1.86-5.09c0-2.14,0.61-3.88,1.83-5.21c1.22-1.33,2.79-1.99,4.71-1.99s3.52,0.66,4.79,1.97
		c1.27,1.31,1.91,3.02,1.91,5.12C560.14,921.94,559.5,923.64,558.22,924.99z"/>
	<path class="st1" d="M582.9,893.34c-3.4,0-6.17,1.11-8.33,3.32c-2.16,2.22-3.24,4.97-3.24,8.25c0,3.32,1.07,6.07,3.21,8.25
		s4.97,3.27,8.47,3.27c3.51,0,6.34-1.12,8.5-3.35c2.16-2.23,3.24-4.98,3.24-8.22c0-3.32-1.09-6.07-3.27-8.25
		C589.3,894.43,586.44,893.34,582.9,893.34z M589.13,911.01c-1.5,1.59-3.54,2.38-6.12,2.38c-2.55,0-4.58-0.79-6.09-2.38
		c-1.51-1.59-2.27-3.62-2.27-6.09c0-2.51,0.76-4.55,2.27-6.12c1.51-1.57,3.51-2.35,5.98-2.35c2.62,0,4.69,0.78,6.2,2.33
		c1.51,1.55,2.27,3.58,2.27,6.09S590.62,909.42,589.13,911.01z"/>
	<path class="st1" d="M587.94,902.75c0-1.18-0.37-2.13-1.11-2.85c-0.74-0.72-1.77-1.08-3.1-1.08h-5.43v11.96h3.6v-3.99h0.94
		l1.72,3.99h3.71l-2.21-4.65C587.31,905.62,587.94,904.49,587.94,902.75z M583.17,903.97h-1.27v-2.16h1.27
		c0.7,0,1.05,0.35,1.05,1.05C584.23,903.6,583.88,903.97,583.17,903.97z"/>
	<path d="M211.62,232.99l156.16,92.7l127.14-73.62c0.16-0.09,0.33-0.16,0.49-0.24c0.11-0.05,0.22-0.12,0.34-0.17
		c0.17-0.07,0.35-0.12,0.53-0.18c0.11-0.04,0.23-0.08,0.34-0.12c0.21-0.06,0.42-0.09,0.64-0.13c0.09-0.01,0.17-0.04,0.26-0.05
		c0.3-0.04,0.61-0.06,0.91-0.06c0.3,0,0.6,0.02,0.9,0.06c0.09,0.01,0.18,0.04,0.28,0.05c0.21,0.04,0.41,0.07,0.61,0.12
		c0.11,0.03,0.23,0.08,0.34,0.11c0.18,0.06,0.35,0.11,0.53,0.18c0.12,0.05,0.24,0.12,0.36,0.17c0.15,0.07,0.3,0.13,0.44,0.21
		c0.01,0.01,0.02,0.02,0.04,0.02c0.01,0.01,0.03,0.01,0.04,0.02l75.68,44.24c2.14,1.25,3.46,3.54,3.47,6.02
		c0.01,2.48-1.3,4.78-3.43,6.04l-74.55,44.21l-44.34,26.3l40.77,23.82l287.9-168.4L498.2,65.91L211.62,232.99z M498.92,120.78
		c0.21,0.04,0.43,0.07,0.64,0.13c0.12,0.03,0.23,0.08,0.34,0.12c0.18,0.06,0.36,0.11,0.53,0.18c0.12,0.05,0.24,0.12,0.36,0.18
		c0.15,0.07,0.31,0.14,0.46,0.23c0.01,0,0.01,0.01,0.02,0.01c0.01,0,0.01,0.01,0.02,0.01c62.42,36.62,181.18,106.23,186.83,109.35
		c0.68,0.34,1.31,0.78,1.86,1.33c2,2,2.6,5.02,1.52,7.63c-0.82,1.98-2.48,3.43-4.46,4.03c-4.55,2.28-30.83,18.19-54.03,32.48
		c-1.12,0.69-2.4,1.04-3.67,1.04c-1.21,0-2.41-0.31-3.5-0.94l-129.15-74.52l-124.7,74.47c-0.28,0.17-0.56,0.31-0.85,0.43
		s-0.59,0.23-0.89,0.31c-0.6,0.16-1.22,0.25-1.85,0.25c-1.27,0-2.55-0.35-3.67-1.04l-53.89-33.23c-0.78-0.48-1.45-1.1-1.97-1.82
		c-0.88-1.2-1.36-2.66-1.35-4.19c0.01-1.83,0.74-3.56,1.99-4.84c0.21-0.21,0.43-0.41,0.67-0.6c0.24-0.19,0.49-0.36,0.75-0.52
		l68.57-41.01l114.67-68.57c1.11-0.66,2.35-0.99,3.59-0.99c0.3,0,0.61,0.02,0.91,0.06C498.75,120.74,498.83,120.76,498.92,120.78z"
		/>
	<path class="st1" d="M801.39,238.37c0-0.31-0.02-0.62-0.06-0.93C801.37,237.75,801.39,238.06,801.39,238.37
		C801.39,238.37,801.39,238.37,801.39,238.37z"/>
	<path class="st1" d="M197.7,237.01C197.7,237.01,197.7,237.02,197.7,237.01c0-0.26,0.02-0.52,0.05-0.78
		C197.72,236.49,197.7,236.75,197.7,237.01z"/>
	<path class="st1" d="M204.7,230.03c1.24,0,2.47,0.33,3.57,0.98l3.34,1.99L498.2,65.91l289.24,168.42l3.41-2
		c1.09-0.64,2.31-0.96,3.53-0.96c1.2,0,2.4,0.31,3.48,0.93c0.15,0.09,0.29,0.19,0.43,0.28c-0.13-0.09-0.25-0.18-0.39-0.26
		L501.72,59.86c-1.09-0.63-2.31-0.95-3.52-0.95c-1.22,0-2.44,0.32-3.53,0.95l-293.5,171.11c-0.13,0.08-0.26,0.17-0.38,0.26
		c0.15-0.1,0.29-0.21,0.45-0.3C202.31,230.33,203.5,230.03,204.7,230.03z"/>
	<path class="st1" d="M684.99,237.24C685,237.24,685,237.24,684.99,237.24c-2.44-1.2-146.73-85.81-180.31-105.51l-1.06,62.3
		c-0.02,1.21-0.35,2.37-0.94,3.38l126.65,73.08C629.34,270.49,683.28,237.24,684.99,237.24z"/>
	<path class="st1" d="M685.03,237.25c-0.01-0.01-0.02-0.01-0.03-0.01C685.02,237.25,685.03,237.25,685.03,237.25
		C685.03,237.25,685.03,237.25,685.03,237.25z"/>
	<path d="M379.49,190.23l-68.57,41.01c-0.26,0.16-0.51,0.33-0.75,0.52c0.24-0.19,0.49-0.36,0.75-0.52L379.49,190.23z"/>
	<path d="M504.75,127.79l-0.07,3.95c33.58,19.7,177.87,104.31,180.32,105.51c0.01,0,0.02,0,0.03,0.01c0,0,0,0,0,0
		c0,0-0.01,0-0.03-0.01c0,0,0,0-0.01,0c-1.71,0-55.66,33.24-55.66,33.24l-126.65-73.08c-0.59,1.02-1.43,1.89-2.47,2.51l-3.53,2.11
		l129.15,74.52c1.08,0.63,2.29,0.94,3.5,0.94c1.27,0,2.55-0.35,3.67-1.04c23.19-14.3,49.47-30.21,54.03-32.48
		c1.98-0.59,3.64-2.05,4.46-4.03c1.08-2.62,0.48-5.63-1.52-7.63c-0.54-0.54-1.17-0.99-1.86-1.33
		c-5.65-3.12-124.41-72.73-186.83-109.35c-0.01,0-0.01-0.01-0.02-0.01C503.46,122.89,504.79,125.25,504.75,127.79z"/>
	<path d="M451.98,417.8C451.98,417.8,451.98,417.8,451.98,417.8l0,95.66c0,2.53-1.37,4.87-3.57,6.1c-1.07,0.6-2.25,0.9-3.43,0.9
		c-1.27,0-2.53-0.34-3.65-1.03l-77.25-47.16c-0.1-0.06-0.19-0.13-0.28-0.2c-0.12-0.08-0.24-0.16-0.35-0.24
		c-0.13-0.1-0.25-0.21-0.38-0.32c-0.1-0.09-0.21-0.18-0.31-0.28c-0.12-0.12-0.23-0.25-0.34-0.37c-0.09-0.1-0.18-0.2-0.26-0.31
		c-0.1-0.14-0.2-0.28-0.29-0.43c-0.07-0.11-0.15-0.21-0.21-0.32c-0.09-0.16-0.17-0.32-0.24-0.48c-0.05-0.11-0.11-0.21-0.16-0.32
		c-0.08-0.18-0.14-0.38-0.2-0.57c-0.03-0.1-0.07-0.19-0.1-0.29c-0.08-0.29-0.14-0.58-0.18-0.87c0-0.01,0-0.01,0-0.02
		c-0.04-0.3-0.06-0.6-0.06-0.9c0-0.01,0-0.02,0-0.02c0-0.01,0-0.01,0-0.02V333.81c0-1.28,0.35-2.51,0.99-3.57L204.7,237.03v334.81
		l287.85,171.01V410.84c0-1.26,0.34-2.48,0.96-3.53l-41.53-24.27V417.8z M450.63,653.58c0,1.57-0.53,3.07-1.46,4.28
		c-0.14,0.18-0.29,0.36-0.45,0.52c-0.47,0.5-1.02,0.94-1.64,1.29c-0.27,0.15-0.54,0.29-0.83,0.4c-0.56,0.23-1.15,0.38-1.74,0.46
		c-0.3,0.04-0.59,0.06-0.89,0.06c-1.24,0-2.48-0.33-3.58-0.98L253.67,548.67c-0.26-0.16-0.52-0.33-0.75-0.52
		c-0.08-0.06-0.15-0.14-0.23-0.21c-0.15-0.13-0.3-0.26-0.44-0.4c-0.09-0.09-0.16-0.19-0.25-0.29c-0.11-0.13-0.23-0.26-0.34-0.39
		c-0.08-0.1-0.14-0.22-0.21-0.32c-0.09-0.14-0.19-0.28-0.28-0.42c-0.07-0.12-0.12-0.24-0.18-0.36c-0.07-0.15-0.15-0.29-0.21-0.44
		c-0.05-0.13-0.09-0.26-0.13-0.39c-0.05-0.15-0.11-0.3-0.15-0.46c-0.04-0.13-0.06-0.27-0.08-0.41c-0.03-0.16-0.07-0.31-0.09-0.47
		c-0.02-0.14-0.02-0.28-0.03-0.43c-0.01-0.15-0.03-0.3-0.03-0.46c0-0.01,0-0.02,0-0.03c0-0.01,0-0.02,0-0.03V333.36
		c0-2.51,1.34-4.82,3.51-6.07c1.08-0.62,2.28-0.93,3.49-0.93c1.22,0,2.44,0.32,3.53,0.95l53.89,31.44c2.15,1.25,3.47,3.56,3.47,6.05
		v140.62l46.39,27.36l82.65,48.75c0.27,0.16,0.52,0.33,0.76,0.52c0.48,0.38,0.9,0.81,1.27,1.29c0.9,1.2,1.42,2.67,1.42,4.22V653.58z
		"/>
	<path class="st1" d="M503.01,753.08c0.02-0.01,0.04-0.03,0.06-0.04c-0.16,0.09-0.32,0.17-0.48,0.24
		C502.73,753.22,502.87,753.16,503.01,753.08z"/>
	<path class="st1" d="M499.53,754c0.01,0,0.01,0,0.02,0c0.3,0,0.61-0.02,0.91-0.06c-0.3,0.04-0.61,0.06-0.91,0.06
		C499.54,754,499.53,754,499.53,754z"/>
	<path class="st1" d="M492.54,747v-4.16L204.7,571.83V237.03l157.01,93.21c0.6-1.01,1.45-1.88,2.51-2.49l3.55-2.06l-156.16-92.7
		l-3.34-1.99c-1.1-0.65-2.34-0.98-3.57-0.98c-1.19,0-2.39,0.31-3.46,0.92c-0.16,0.09-0.3,0.2-0.45,0.3
		c-0.12,0.08-0.24,0.15-0.36,0.24c-0.13,0.1-0.25,0.22-0.38,0.33c-0.1,0.09-0.21,0.18-0.31,0.28c-0.12,0.12-0.23,0.25-0.34,0.38
		c-0.09,0.1-0.18,0.2-0.26,0.3c-0.11,0.14-0.2,0.29-0.3,0.44c-0.07,0.1-0.14,0.2-0.21,0.31c-0.09,0.16-0.17,0.34-0.25,0.51
		c-0.05,0.1-0.11,0.2-0.15,0.31c-0.09,0.21-0.15,0.42-0.22,0.63c-0.02,0.08-0.06,0.15-0.08,0.23c-0.08,0.29-0.14,0.59-0.18,0.9
		c-0.01,0.05,0,0.09-0.01,0.14c-0.03,0.26-0.05,0.52-0.05,0.78c0,0,0,0,0,0.01v334.81c0,2.47,1.3,4.76,3.42,6.02l294.85,175.17
		c0.02,0.01,0.04,0.02,0.06,0.03C493.88,751.8,492.54,749.5,492.54,747z"/>
	<path class="st1" d="M451.98,382.94v0.1l41.53,24.27c0.6-1.02,1.45-1.89,2.51-2.51l3.53-2.07l-40.77-23.82L451.98,382.94z"/>
	<path class="st1" d="M257.25,333.36v201.06l50.22-30.97c1.13-0.69,2.4-1.04,3.67-1.04V364.8L257.25,333.36z"/>
	<path d="M446.26,660.07c0.28-0.11,0.56-0.25,0.83-0.4c0.62-0.35,1.16-0.79,1.64-1.29c-0.47,0.5-1.02,0.94-1.64,1.29
		C446.82,659.82,446.55,659.95,446.26,660.07z"/>
	<path d="M253.57,536.69l3.67-2.27V333.36l53.89,31.44v137.62c0,0,0,0,0,0c1.23,0,2.46,0.32,3.56,0.97l3.44,2.03V364.8
		c0-2.49-1.32-4.79-3.47-6.05l-53.89-31.44c-1.09-0.64-2.31-0.95-3.53-0.95c-1.2,0-2.41,0.31-3.49,0.93
		c-2.17,1.25-3.51,3.56-3.51,6.07v209.29c0,0.01,0,0.02,0,0.03C250.24,540.24,251.5,537.97,253.57,536.69z"/>
	<path d="M447.95,582.05c-0.24-0.19-0.49-0.36-0.76-0.52l-82.65-48.75l82.65,48.75C447.45,581.69,447.71,581.86,447.95,582.05z"/>
	<path d="M446.26,660.07c-0.56,0.23-1.15,0.38-1.74,0.46C445.12,660.45,445.7,660.3,446.26,660.07z"/>
	<path d="M499.54,747l294.85-175.61V238.37L499.54,410.84V747z M545.77,588.46V515.7v-75v0c0-0.31,0.02-0.62,0.06-0.93
		c0.08-0.61,0.24-1.2,0.48-1.77c0.16-0.39,0.37-0.76,0.61-1.12c0.1-0.15,0.19-0.31,0.3-0.45c0.04-0.05,0.09-0.09,0.13-0.14
		c0.22-0.27,0.45-0.52,0.71-0.75c0.08-0.07,0.17-0.14,0.25-0.21c0.31-0.26,0.63-0.5,0.98-0.7l132.49-75.94c0,0,0,0,0,0l11.99-6.87
		l42.8-24.53c0.54-0.31,1.11-0.54,1.69-0.7c0.59-0.15,1.19-0.23,1.79-0.23h0c1.21,0,2.42,0.31,3.51,0.94
		c0.54,0.31,1.03,0.69,1.46,1.12c0.21,0.22,0.41,0.44,0.6,0.68c0.92,1.2,1.44,2.69,1.44,4.25v209.29c0,0.01,0,0.02,0,0.03
		c0,0.01,0,0.02,0,0.03c0,0.16-0.02,0.31-0.03,0.47c-0.01,0.13-0.01,0.27-0.03,0.4c0,0.01,0,0.02,0,0.03
		c-0.02,0.16-0.06,0.32-0.1,0.48c-0.03,0.13-0.05,0.27-0.08,0.4c0,0.01,0,0.02,0,0.02c-0.01,0.02-0.02,0.04-0.02,0.06
		c-0.04,0.13-0.09,0.26-0.13,0.39c-0.04,0.12-0.08,0.25-0.13,0.37c0,0.01-0.01,0.02-0.01,0.03c-0.04,0.1-0.09,0.19-0.14,0.28
		c-0.02,0.05-0.05,0.1-0.07,0.14c-0.06,0.11-0.11,0.23-0.17,0.35c-0.01,0.01-0.02,0.03-0.02,0.04c-0.06,0.1-0.13,0.2-0.2,0.3
		c-0.02,0.03-0.04,0.06-0.06,0.09c-0.07,0.1-0.13,0.21-0.21,0.31c-0.01,0.01-0.02,0.03-0.04,0.04c-0.08,0.1-0.17,0.2-0.25,0.29
		c-0.02,0.03-0.05,0.05-0.07,0.08c-0.08,0.09-0.15,0.18-0.23,0.26c-0.02,0.02-0.03,0.03-0.05,0.04c-0.1,0.1-0.2,0.18-0.3,0.27
		c-0.04,0.03-0.07,0.07-0.11,0.1c-0.07,0.06-0.14,0.13-0.21,0.19c-0.02,0.02-0.04,0.03-0.06,0.04c-0.11,0.08-0.23,0.16-0.35,0.24
		c-0.12,0.08-0.23,0.17-0.35,0.24L556.33,659.61c-0.27,0.16-0.56,0.31-0.85,0.43c-0.87,0.37-1.79,0.55-2.72,0.55
		c-1.2,0-2.39-0.31-3.47-0.92c-2.18-1.25-3.53-3.57-3.53-6.08V588.46z"/>
	<path class="st1" d="M801.33,237.45c-0.01-0.11-0.04-0.21-0.06-0.31c-0.04-0.2-0.07-0.4-0.12-0.59c-0.03-0.12-0.08-0.22-0.11-0.34
		c-0.06-0.18-0.11-0.35-0.18-0.52c-0.05-0.12-0.12-0.23-0.17-0.35c-0.07-0.15-0.14-0.31-0.23-0.46c-0.07-0.12-0.15-0.23-0.23-0.34
		c-0.09-0.14-0.17-0.28-0.27-0.41c-0.08-0.11-0.18-0.21-0.28-0.32c-0.11-0.12-0.21-0.25-0.32-0.37c-0.1-0.1-0.22-0.19-0.32-0.29
		c-0.12-0.11-0.24-0.22-0.36-0.32c-0.12-0.09-0.24-0.16-0.36-0.25c-0.14-0.1-0.28-0.2-0.43-0.28c-1.08-0.62-2.28-0.93-3.48-0.93
		c-1.22,0-2.44,0.32-3.53,0.96l-3.41,2l-287.9,168.4l-3.53,2.07c-1.06,0.62-1.91,1.49-2.51,2.51c-0.62,1.05-0.96,2.27-0.96,3.53
		v332.01V747c0,2.5,1.33,4.8,3.48,6.05c0.02,0.01,0.04,0.03,0.06,0.04c0.14,0.08,0.28,0.14,0.42,0.2c0.12,0.06,0.24,0.12,0.36,0.18
		c0.17,0.07,0.35,0.12,0.52,0.18c0.12,0.04,0.23,0.09,0.35,0.12c0.2,0.05,0.4,0.09,0.6,0.12c0.1,0.02,0.2,0.05,0.3,0.06
		c0.3,0.04,0.59,0.06,0.89,0.06c0.01,0,0.01,0,0.02,0c0.3,0,0.61-0.02,0.91-0.06c0.1-0.01,0.19-0.04,0.29-0.06
		c0.2-0.04,0.41-0.07,0.61-0.12c0.12-0.03,0.23-0.08,0.35-0.12c0.18-0.06,0.35-0.11,0.53-0.18c0.12-0.05,0.24-0.12,0.36-0.17
		c0.16-0.08,0.32-0.15,0.48-0.24c0.02-0.01,0.04-0.02,0.06-0.03l294.85-175.61c2.12-1.26,3.42-3.55,3.42-6.01V238.37c0,0,0,0,0,0
		C801.39,238.06,801.37,237.75,801.33,237.45z M794.39,571.39L499.54,747V410.84l294.85-172.46V571.39z"/>
	<path d="M569.29,423.16l60.38-34.61c0,0,0,0,0,0l52.1-29.86c0,0,0,0,0,0l-132.49,75.94c-0.35,0.2-0.67,0.44-0.98,0.7
		c0.31-0.25,0.63-0.5,0.98-0.7L569.29,423.16z"/>
	<path d="M547.35,436.3c0.22-0.27,0.45-0.52,0.71-0.75C547.8,435.78,547.56,436.03,547.35,436.3z"/>
	<path d="M746.98,543.58c0.02-0.13,0.02-0.27,0.03-0.4c0,0.04-0.01,0.09-0.01,0.13C746.99,543.4,747,543.49,746.98,543.58z"/>
	<path d="M738.26,326.59c-0.59,0.15-1.16,0.39-1.69,0.7l-42.8,24.53l42.8-24.53C737.11,326.98,737.68,326.75,738.26,326.59z"/>
	<path d="M639.23,391.15c0.6,1.04,0.93,2.24,0.93,3.48v71.68c0,0.01,0,0.03,0,0.04c0,0.3-0.02,0.59-0.06,0.88
		c-0.01,0.1-0.04,0.21-0.06,0.31c-0.04,0.2-0.07,0.39-0.12,0.58c-0.03,0.12-0.08,0.23-0.12,0.35c-0.06,0.17-0.11,0.34-0.18,0.51
		c-0.05,0.12-0.11,0.23-0.17,0.35c-0.07,0.15-0.15,0.31-0.23,0.46c-0.07,0.12-0.14,0.22-0.22,0.33c-0.09,0.14-0.18,0.28-0.28,0.42
		c-0.08,0.11-0.17,0.21-0.26,0.31c-0.11,0.13-0.21,0.25-0.33,0.37c-0.1,0.1-0.2,0.19-0.31,0.28c-0.12,0.11-0.24,0.22-0.37,0.32
		c-0.11,0.09-0.23,0.17-0.35,0.25c-0.1,0.07-0.19,0.14-0.29,0.2l-80.39,49.4c-1.12,0.69-2.39,1.04-3.66,1.04v57.59L678.25,505
		V368.78L639.23,391.15z"/>
	<path class="st1" d="M549.16,582.46l3.6-2.16V522.7c0,0,0,0,0,0c-1.18,0-2.35-0.3-3.42-0.89c-2.21-1.24-3.58-3.57-3.58-6.11v72.76
		C545.77,586,547.06,583.72,549.16,582.46z"/>
	<path class="st1" d="M636.67,388.57c1.09,0.63,1.96,1.52,2.56,2.58l39.03-22.37v-4.01c0-2.51,1.34-4.83,3.52-6.07l-52.1,29.86
		c1.08-0.62,2.28-0.93,3.48-0.93C634.37,387.63,635.58,387.94,636.67,388.57z"/>
	<path d="M685.25,364.77L685.25,364.77v137.2c1.27,0,2.54,0.35,3.67,1.04l51.13,31.43V333.36L685.25,364.77z"/>
	<path class="st1" d="M746.98,543.6c0-0.01,0-0.02,0-0.03c0.01-0.09,0.01-0.18,0.02-0.27C746.99,543.4,746.99,543.51,746.98,543.6z"
		/>
	<path class="st1" d="M678.25,364.77v4.01V505l3.4-2.04c1.11-0.67,2.36-1,3.6-1h0v-137.2v0l54.79-31.4v201.07l3.67,2.25
		c2.08,1.28,3.34,3.55,3.33,5.99c0-0.01,0-0.02,0-0.03V333.36c0-1.56-0.52-3.05-1.44-4.25c-0.18-0.24-0.38-0.47-0.6-0.68
		c-0.43-0.43-0.92-0.81-1.46-1.12c-1.09-0.63-2.3-0.94-3.51-0.94h0c-0.6,0-1.2,0.08-1.79,0.23c-0.59,0.15-1.16,0.39-1.69,0.7
		l-42.8,24.53l-11.99,6.87c0,0,0,0,0,0c0,0,0,0,0,0C679.6,359.94,678.25,362.26,678.25,364.77z"/>
	<polygon points="685.25,508.97 552.77,588.46 552.77,653.58 740.05,542.65 	"/>
	<path class="st1" d="M549.3,659.67c1.07,0.61,2.27,0.92,3.47,0.92c0.93,0,1.85-0.18,2.72-0.55c0.29-0.12,0.57-0.26,0.85-0.43
		l187.28-110.93c0.12-0.07,0.23-0.16,0.35-0.24c0.12-0.08,0.24-0.15,0.35-0.24c0.02-0.02,0.04-0.03,0.06-0.04
		c0.08-0.06,0.14-0.13,0.21-0.19c0.04-0.03,0.07-0.07,0.11-0.1c0.1-0.09,0.21-0.18,0.3-0.27c0.02-0.02,0.03-0.03,0.05-0.04
		c0.08-0.08,0.15-0.18,0.23-0.26c0.02-0.03,0.05-0.05,0.07-0.08c0.08-0.1,0.18-0.19,0.25-0.29c0.01-0.01,0.02-0.03,0.04-0.04
		c0.08-0.1,0.14-0.21,0.21-0.31c0.02-0.03,0.04-0.06,0.06-0.09c0.07-0.1,0.14-0.2,0.2-0.3c0.01-0.01,0.02-0.03,0.02-0.04
		c0.06-0.11,0.11-0.23,0.17-0.35c0.02-0.05,0.05-0.1,0.07-0.14c0.04-0.09,0.1-0.18,0.14-0.28c0-0.01,0.01-0.02,0.01-0.03
		c0.05-0.12,0.09-0.25,0.13-0.37c0.04-0.13,0.1-0.26,0.13-0.39c0.01-0.02,0.02-0.04,0.02-0.06c0-0.01,0-0.02,0-0.02
		c0.04-0.13,0.05-0.26,0.08-0.4c0.03-0.16,0.07-0.32,0.1-0.48c0.01-0.1,0.01-0.2,0.02-0.3c0-0.04,0.01-0.09,0.01-0.13
		c0.01-0.16,0.03-0.31,0.03-0.47c0-0.01,0-0.02,0-0.03c0.01-2.44-1.25-4.71-3.33-5.99l-3.67-2.25L688.92,503
		c-1.12-0.69-2.39-1.04-3.67-1.04h0c-1.25,0-2.49,0.33-3.6,1l-3.4,2.04L552.77,580.3l-3.6,2.16c-2.11,1.27-3.4,3.54-3.4,6v65.12
		C545.77,656.1,547.11,658.42,549.3,659.67z M552.77,588.46l132.49-79.49l54.79,33.68L552.77,653.58V588.46z"/>
	<polygon points="444.98,426.06 374.4,470.38 444.98,513.46 	"/>
	<path class="st1" d="M360.73,466.35c0,0.3,0.02,0.6,0.06,0.9c-0.04-0.3-0.06-0.61-0.06-0.92
		C360.73,466.33,360.73,466.34,360.73,466.35z"/>
	<path class="st1" d="M448.7,423.72l-3.72,2.34v87.4l-70.57-43.08l-2.95,1.85c-1.14,0.71-2.43,1.07-3.72,1.07
		c-1.16,0-2.33-0.29-3.39-0.87c-0.19-0.11-0.37-0.23-0.54-0.35c0.1,0.07,0.18,0.14,0.28,0.2l77.25,47.16
		c1.12,0.68,2.38,1.03,3.65,1.03c1.18,0,2.36-0.3,3.43-0.9c2.21-1.24,3.57-3.57,3.57-6.1V417.8
		C451.98,420.21,450.74,422.44,448.7,423.72z"/>
	<path d="M491.47,262.16l-123.74,71.65V466.3l77.25-48.5v-38.85l48.55-28.79c-0.62-1.04-0.96-2.23-0.98-3.48L491.47,262.16z"/>
	<path class="st1" d="M499.33,251.19c-0.3-0.04-0.6-0.06-0.9-0.06c-0.3,0-0.61,0.02-0.91,0.06c0.3-0.04,0.61-0.06,0.91-0.06
		C498.72,251.14,499.03,251.16,499.33,251.19z"/>
	<path class="st1" d="M501.88,252.05c-0.14-0.08-0.29-0.14-0.44-0.21c0.16,0.08,0.32,0.15,0.48,0.24
		C501.9,252.07,501.89,252.06,501.88,252.05z"/>
	<path class="st1" d="M360.73,466.3c0,0.01,0,0.01,0,0.02c0,0.31,0.02,0.62,0.06,0.92c0,0.01,0,0.01,0,0.02
		c0.04,0.3,0.1,0.59,0.18,0.87c0.03,0.1,0.07,0.19,0.1,0.29c0.06,0.19,0.12,0.38,0.2,0.57c0.05,0.11,0.1,0.21,0.16,0.32
		c0.08,0.16,0.15,0.33,0.24,0.48c0.06,0.11,0.14,0.21,0.21,0.32c0.09,0.14,0.19,0.29,0.29,0.43c0.08,0.11,0.17,0.2,0.26,0.31
		c0.11,0.13,0.22,0.26,0.34,0.37c0.1,0.1,0.2,0.19,0.31,0.28c0.12,0.11,0.25,0.22,0.38,0.32c0.11,0.09,0.23,0.16,0.35,0.24
		c0.18,0.12,0.35,0.25,0.54,0.35c1.06,0.58,2.22,0.87,3.39,0.87c1.29,0,2.59-0.36,3.72-1.07l2.95-1.85l70.57-44.31l3.72-2.34
		c2.04-1.28,3.28-3.52,3.28-5.93c0,0,0,0,0,0v-34.76v-0.1l6.8-4.03l44.34-26.3c-1.1,0.65-2.33,0.98-3.57,0.98
		c-1.18,0-2.36-0.3-3.43-0.9c-1.09-0.61-1.98-1.49-2.59-2.53l-48.55,28.79v38.85l-77.25,48.5V333.81l123.74-71.65l-0.05-3.94
		c-0.03-2.52,1.3-4.87,3.48-6.14c0.16-0.1,0.33-0.17,0.5-0.25c-0.16,0.08-0.33,0.15-0.49,0.24L367.77,325.7l-3.55,2.06
		c-1.05,0.61-1.91,1.47-2.51,2.49c-0.63,1.06-0.99,2.29-0.99,3.57V466.3z"/>
	<path d="M566.71,432.71l-13.94,7.99v0v75l73.71-45.29l-57.36-35.21C568.09,434.58,567.28,433.71,566.71,432.71z"/>
	<path class="st1" d="M549.35,521.81c1.06,0.59,2.24,0.89,3.42,0.89c0,0,0,0,0,0c1.27,0,2.54-0.35,3.66-1.04l80.39-49.4
		c0.1-0.06,0.19-0.14,0.29-0.2c-0.17,0.12-0.35,0.24-0.53,0.35c-1.06,0.59-2.24,0.89-3.42,0.89c-1.27,0-2.54-0.35-3.66-1.03
		l-3.02-1.86l-73.71,45.29v-75v0l13.94-7.99c-0.61-1.07-0.95-2.3-0.93-3.58c0.04-2.47,1.37-4.74,3.52-5.97l-20.01,11.47
		c-0.35,0.2-0.67,0.44-0.98,0.7c-0.08,0.07-0.17,0.14-0.25,0.21c-0.26,0.23-0.49,0.49-0.71,0.75c-0.15,0.19-0.3,0.39-0.44,0.59
		c-0.23,0.36-0.44,0.72-0.61,1.12c-0.23,0.56-0.4,1.15-0.48,1.77c-0.04,0.31-0.06,0.62-0.06,0.93v0v75
		C545.77,518.24,547.14,520.58,549.35,521.81z"/>
	<path class="st1" d="M547.21,436.44c-0.11,0.14-0.2,0.3-0.3,0.45c0.13-0.21,0.28-0.4,0.44-0.59
		C547.31,436.35,547.25,436.39,547.21,436.44z"/>
	<path class="st1" d="M548.05,435.54c0.08-0.07,0.17-0.14,0.25-0.21C548.22,435.4,548.13,435.47,548.05,435.54z"/>
	<polygon points="633.16,466.3 633.16,394.63 572.77,429.23 	"/>
	<path class="st1" d="M637.83,471.5c0.1-0.09,0.21-0.18,0.31-0.28c0.12-0.12,0.22-0.24,0.33-0.37c0.09-0.1,0.18-0.2,0.26-0.31
		c0.1-0.13,0.19-0.28,0.28-0.42c0.07-0.11,0.15-0.22,0.22-0.33c0.09-0.15,0.16-0.3,0.23-0.46c0.06-0.12,0.12-0.23,0.17-0.35
		c0.07-0.17,0.12-0.34,0.18-0.51c0.04-0.12,0.08-0.23,0.12-0.35c0.05-0.19,0.08-0.39,0.12-0.58c0.02-0.1,0.05-0.2,0.06-0.31
		c0.04-0.29,0.06-0.58,0.06-0.88c0-0.01,0-0.03,0-0.04v-71.68c0-1.24-0.33-2.44-0.93-3.48c-0.6-1.05-1.48-1.95-2.56-2.58
		c-1.09-0.63-2.3-0.94-3.51-0.94c-1.2,0-2.4,0.31-3.48,0.93c0,0,0,0,0,0l-60.38,34.61c-2.14,1.23-3.48,3.5-3.52,5.97
		c-0.02,1.28,0.32,2.51,0.93,3.58c0.57,1,1.39,1.86,2.41,2.49l57.36,35.21l3.02,1.86c1.12,0.69,2.39,1.03,3.66,1.03
		c1.18,0,2.35-0.3,3.42-0.89c0.19-0.1,0.36-0.23,0.53-0.35c0.12-0.08,0.24-0.16,0.35-0.25C637.59,471.71,637.71,471.61,637.83,471.5
		z M633.16,466.3l-60.38-37.07l60.38-34.61V466.3z"/>
	<polygon class="st1" points="257.25,542.65 443.63,653.58 443.63,587.56 311.14,509.42 	"/>
	<path d="M447.95,582.05c-0.24-0.19-0.49-0.36-0.76-0.52l-82.65-48.75l-46.39-27.36l-3.44-2.03c-1.1-0.65-2.33-0.97-3.56-0.97
		c0,0,0,0,0,0c-1.27,0-2.55,0.35-3.67,1.04l-50.22,30.97l-3.67,2.27c-2.08,1.28-3.33,3.55-3.32,5.99c0,0.01,0,0.02,0,0.03
		c0,0.15,0.02,0.31,0.03,0.46c0.01,0.14,0.01,0.29,0.03,0.43c0.02,0.16,0.06,0.32,0.09,0.47c0.03,0.14,0.05,0.28,0.08,0.41
		c0.04,0.16,0.1,0.31,0.15,0.46c0.04,0.13,0.08,0.26,0.13,0.39c0.06,0.15,0.14,0.29,0.21,0.44c0.06,0.12,0.11,0.24,0.18,0.36
		c0.08,0.15,0.18,0.28,0.28,0.42c0.07,0.11,0.14,0.22,0.21,0.32c0.1,0.14,0.22,0.26,0.34,0.39c0.08,0.09,0.16,0.2,0.25,0.29
		c0.14,0.14,0.29,0.27,0.44,0.4c0.08,0.07,0.15,0.14,0.23,0.21c0.24,0.19,0.49,0.36,0.75,0.52L440.05,659.6
		c1.1,0.66,2.34,0.98,3.58,0.98c0.3,0,0.6-0.02,0.89-0.06c0.59-0.08,1.18-0.23,1.74-0.46c0.28-0.11,0.56-0.25,0.83-0.4
		c0.62-0.35,1.16-0.79,1.64-1.29c0.16-0.17,0.31-0.34,0.45-0.52c0.93-1.21,1.46-2.7,1.46-4.28v-66.02c0-1.55-0.51-3.02-1.42-4.22
		C448.85,582.86,448.43,582.43,447.95,582.05z M443.63,653.58L257.25,542.65l53.89-33.23l132.49,78.15V653.58z"/>
	<polygon class="st1" points="368.4,270.49 496.63,193.91 497.75,127.67 314.51,237.25 	"/>
	<path d="M494.16,121.66l-114.67,68.57l-68.57,41.01c-0.26,0.16-0.51,0.33-0.75,0.52c-0.24,0.19-0.46,0.39-0.67,0.6
		c-1.25,1.28-1.98,3.01-1.99,4.84c-0.01,1.53,0.48,2.99,1.35,4.19c0.53,0.72,1.19,1.34,1.97,1.82l53.89,33.23
		c1.13,0.69,2.4,1.04,3.67,1.04c0.62,0,1.24-0.08,1.85-0.25c0.3-0.08,0.6-0.19,0.89-0.31s0.58-0.27,0.85-0.43l124.7-74.47l3.53-2.11
		c1.04-0.62,1.89-1.49,2.47-2.51c0.58-1.01,0.92-2.17,0.94-3.38l1.06-62.3l0.07-3.95c0.04-2.53-1.29-4.89-3.48-6.17
		c-0.01,0-0.01-0.01-0.02-0.01c-0.15-0.09-0.31-0.15-0.46-0.23c-0.12-0.06-0.24-0.13-0.36-0.18c-0.17-0.07-0.35-0.12-0.53-0.18
		c-0.12-0.04-0.23-0.09-0.34-0.12c-0.21-0.06-0.42-0.09-0.64-0.13c-0.09-0.01-0.17-0.04-0.26-0.05c-0.3-0.04-0.61-0.06-0.91-0.06
		C496.5,120.67,495.26,121,494.16,121.66z M496.63,193.91L368.4,270.49l-53.89-33.23l183.24-109.58L496.63,193.91z"/>
	<polygon points="574.1,302.37 498.42,258.14 499.54,346.59 	"/>
	<path class="st1" d="M491.42,258.22l0.05,3.94l1.07,84.52c0.02,1.25,0.36,2.44,0.98,3.48c0.62,1.04,1.5,1.92,2.59,2.53
		c1.06,0.6,2.25,0.9,3.43,0.9c1.24,0,2.47-0.33,3.57-0.98l74.55-44.21c2.13-1.26,3.44-3.56,3.43-6.04
		c-0.01-2.48-1.33-4.77-3.47-6.02l-75.68-44.24c-0.01-0.01-0.03-0.01-0.04-0.02c-0.15-0.09-0.32-0.16-0.48-0.24
		c-0.12-0.06-0.23-0.12-0.36-0.17c-0.17-0.07-0.35-0.12-0.53-0.18c-0.11-0.04-0.22-0.08-0.34-0.11c-0.2-0.05-0.41-0.09-0.61-0.12
		c-0.09-0.02-0.18-0.04-0.28-0.05c-0.3-0.04-0.6-0.06-0.9-0.06c-0.3,0-0.61,0.02-0.91,0.06c-0.09,0.01-0.17,0.04-0.26,0.05
		c-0.21,0.04-0.43,0.07-0.64,0.13c-0.12,0.03-0.23,0.08-0.34,0.12c-0.18,0.06-0.36,0.11-0.53,0.18c-0.12,0.05-0.23,0.11-0.34,0.17
		c-0.17,0.08-0.34,0.15-0.5,0.25C492.72,253.36,491.39,255.7,491.42,258.22z M574.1,302.37l-74.55,44.21l-1.12-88.45L574.1,302.37z"
		/>
</g>
</svg>
